<?xml version="1.0" encoding="UTF-8"?>
<svg id="Layer_1" data-name="Layer 1" xmlns="http://www.w3.org/2000/svg" xmlns:xlink="http://www.w3.org/1999/xlink" viewBox="0 17 159.43 76.14" preserveAspectRatio="xMidYMid meet">
  <defs>
    <style>
      .cls-1 {
        fill: #e94484;
      }

      .cls-2 {
        stroke: #41ac40;
      }

      .cls-2, .cls-3, .cls-4, .cls-5, .cls-6, .cls-7, .cls-8, .cls-9 {
        stroke-miterlimit: 10;
      }

      .cls-2, .cls-3, .cls-5, .cls-6 {
        stroke-width: .31px;
      }

      .cls-2, .cls-3, .cls-5, .cls-10 {
        fill: #fff;
      }

      .cls-3, .cls-6 {
        stroke: #e41913;
      }

      .cls-11, .cls-9, .cls-12 {
        fill: #010101;
      }

      .cls-13 {
        fill: url(#linear-gradient-7);
      }

      .cls-14 {
        fill: url(#linear-gradient-5);
      }

      .cls-15 {
        fill: url(#linear-gradient-9);
      }

      .cls-16 {
        fill: url(#linear-gradient-4);
      }

      .cls-17 {
        fill: url(#linear-gradient-3);
      }

      .cls-18 {
        fill: url(#linear-gradient-2);
      }

      .cls-4 {
        fill: #f9d2e0;
      }

      .cls-4, .cls-9 {
        stroke: #010101;
        stroke-width: .1px;
      }

      .cls-5 {
        stroke: #1e3764;
      }

      .cls-19 {
        fill: url(#linear-gradient);
      }

      .cls-20 {
        fill: #262323;
      }

      .cls-21 {
        fill: #c0153e;
      }

      .cls-22 {
        fill: #e41913;
      }

      .cls-7 {
        stroke: url(#linear-gradient-8);
      }

      .cls-7, .cls-8 {
        fill: none;
        stroke-linecap: round;
      }

      .cls-8 {
        stroke: url(#linear-gradient-6);
      }

      .cls-23 {
        fill: #060404;
        font-family: ArialMT, Arial;
      }

      .cls-23, .cls-12 {
        font-size: 7px;
      }

      .cls-24 {
        fill: #41ac40;
      }

      .cls-12 {
        font-family: Arial-BoldMT, Arial;
        font-weight: 700;
      }
    </style>
    <linearGradient id="linear-gradient" x1="73.72" y1="24.81" x2="82.59" y2="24.81" gradientUnits="userSpaceOnUse">
      <stop offset="0" stop-color="#262323"/>
      <stop offset=".31" stop-color="#11070e" stop-opacity=".9"/>
      <stop offset="1" stop-color="#57b031"/>
    </linearGradient>
    <linearGradient id="linear-gradient-2" x1="77.84" y1="27.04" x2="78.67" y2="27.04" xlink:href="#linear-gradient"/>
    <linearGradient id="linear-gradient-3" x1="75.16" y1="27.41" x2="75.91" y2="27.41" xlink:href="#linear-gradient"/>
    <linearGradient id="linear-gradient-4" x1="79.15" y1="27.46" x2="79.84" y2="27.46" xlink:href="#linear-gradient"/>
    <linearGradient id="linear-gradient-5" x1="77.27" y1="27.8" x2="77.98" y2="27.8" xlink:href="#linear-gradient"/>
    <linearGradient id="linear-gradient-6" x1="30.89" y1="32.85" x2="119.79" y2="32.85" gradientUnits="userSpaceOnUse">
      <stop offset="0" stop-color="#262323"/>
      <stop offset=".31" stop-color="#010202"/>
      <stop offset="1" stop-color="#57b031"/>
    </linearGradient>
    <linearGradient id="linear-gradient-7" x1="30.89" y1="32.98" x2="119.79" y2="32.98" xlink:href="#linear-gradient-6"/>
    <linearGradient id="linear-gradient-8" x1="87.41" y1="43.12" x2="111.86" y2="43.12" gradientUnits="userSpaceOnUse">
      <stop offset="0" stop-color="#262323"/>
      <stop offset=".56" stop-color="#e62340"/>
    </linearGradient>
    <linearGradient id="linear-gradient-9" x1="87.41" y1="53.67" x2="111.86" y2="53.67" xlink:href="#linear-gradient-8"/>
  </defs>
  <g id="microscope">
    <g>
      <path class="cls-11" d="M48.73,54.92l.42-1.47-5.11-3.11c-.23-.18-.32-.36-.18-.63.11-.22.32-.55.61-.45l5.02,3.06s.02,0,.03-.03c.17-.4.42-.72.83-.89.68-.28,1.35-.02,1.8.52.67-.47,1.2-1.2,1.45-1.99.43-1.35.19-2.75-.66-3.88-.14-.18-.7-.81-.9-.82-.06,0-.1.02-.15.02-.24-.01-.53-.07-.73-.22l-1.51,2.42c-.16.17-.34.13-.53.04-.07.04-.35.61-.46.73-.1.11-.28.15-.41.1-.42-.27-.93-.51-1.33-.79-.57-.41.04-.79.22-1.24v-.03c-.2-.07-.25-.23-.22-.43l3.63-5.93c.15-.19.35-.26.59-.19.11.03.25.17.31.08l.41-.69c-.23-.11-.41-.29-.31-.57.02-.06.35-.57.39-.6.17-.15.36-.06.52.03.63.32,1.25.78,1.86,1.14.09.09.12.18.11.31,0,.12-.29.56-.39.65-.21.2-.44.14-.64-.02h-.03s-.4.63-.43.69c0,.02-.02.03,0,.05.9.46-.03,1.26-.3,1.81.24.17.42.36.55.62.04.08.07.23.11.28.06.07.36.25.46.33,2.91,2.39,2.86,7.27-.09,9.6-.09.07-.36.23-.42.29-.02.02-.03.03-.02.06l.66,1.13c.07.04.98,0,1.16.01.55.04,1.03.45,1.15.99.04.2.06.76.03.96-.02.11-.14.25-.25.28-4.09.04-8.19.02-12.29.01-.15-.04-.26-.16-.28-.32-.13-.9.2-1.82,1.2-1.93h4.09ZM52.21,38.38l-.17.29,1.71,1.02.17-.29-1.71-1.02ZM52.3,39.36l-.46.77.68.41.46-.77-.68-.41ZM50.95,40.21l-3.48,5.66,1.86,1.15,1.44-2.29c-.67-.84-.16-2.16.89-2.34.2-.03.37,0,.56,0l.64-1.02c.02-.08-.05-.11-.11-.15-.53-.37-1.15-.65-1.68-1.01-.03-.02-.08-.03-.11-.01ZM52.85,43.83c0-.52-.42-.95-.95-.95s-.95.42-.95.95.42.95.95.95.95-.42.95-.95ZM52.97,53.36s.04-.01.05-.02c.3-.18.69-.56.93-.82,1.91-2.1,2.03-5.28.28-7.52-.26-.34-.55-.66-.9-.91-.08.19-.13.38-.24.55-.13.19-.28.29-.45.42.03,0,.05.02.07.03.74.65,1.32,1.62,1.52,2.59.37,1.81-.37,3.59-1.82,4.69l.57.98ZM47.57,46.54l-.37.6,1.13.69.37-.6-1.13-.69ZM44.38,49.73l-.11.18,5.03,3.1.11-.18-5.03-3.1ZM53.34,54.93l-1.59-2.72c-.35-.51-1.11-.6-1.54-.14-.24.26-.34.72-.45,1.05-.19.6-.35,1.2-.52,1.8h4.11ZM55.77,56.71v-.63c0-.37-.5-.73-.85-.7h-10.13c-.36-.04-.87.36-.87.72v.61h11.85Z"/>
      <circle class="cls-11" cx="50.96" cy="53.01" r=".5"/>
    </g>
  </g>
  <g id="icon_for_foxa1-hnf4a" data-name="icon for foxa1-hnf4a">
    <g>
      <path class="cls-19" d="M77.64,29.49c-.8,0-1.58-.09-2.24-.27-.48-.13-1.59-.49-1.65-1.15-.03-.32-.02-.88,0-1.2.05-.73,1.18-1.1,1.84-1.25.42-.1.82-.15,1.19-.17l.19-.2c.18-.2.36-.4.47-.63.03-.05.04-.1.06-.15.03-.09.07-.18.15-.28.09-.1.19-.2.29-.29.07-.06.13-.12.19-.18l.49-.5c.31-.31.61-.62.93-.93,0-.01-.01-.05-.03-.09-.08-.21-.05-.35.03-.46s.22-.18.36-.18c.11,0,.22.04.31.13l1.45-1.43c.11-.09.24-.13.37-.13.17,0,.32.07.43.19.11.13.15.29.13.47-.02.15-.11.25-.21.35-.27.3-.56.57-.84.84,0,0-.46.45-.52.5.14.13.18.31.12.47-.07.18-.24.29-.42.29-.07,0-.14-.02-.2-.05l-.09-.05-1.93,1.92c-.1.09-.23.13-.35.17-.12.04-.24.07-.34.15h.01c.59,0,1.14.06,1.67.17,1.27.27,1.96.72,2,1.31.02.33.02.83,0,1.16-.05.71-1.21,1.08-1.71,1.2-.64.16-1.37.25-2.14.25ZM74.04,28.11s.05.1.05.12c.17.28.77.52.89.57.7.27,1.69.42,2.69.42h0c1.14,0,2.15-.19,2.85-.52.17-.08.67-.39.67-.59v-.62c-.6.52-1.45.69-2.04.79-.49.08-1.01.11-1.54.11-.62,0-1.23-.05-1.79-.16-.52-.1-1.28-.28-1.8-.75v.65ZM76.43,26.63c-.13,0-.73.12-.83.15-.4.09-.91.24-1.28.53,0,.02.04.05.07.07.5.37,1.38.54,1.74.6.47.07.98.11,1.49.11.68,0,1.35-.07,1.94-.2.39-.08.96-.24,1.37-.57,0-.03-.17-.14-.21-.16-.6-.35-1.6-.53-2.33-.57h-1.13s.03.05.05.08c.02.05.05.09.07.14.06.19.04.37-.06.5-.1.13-.27.22-.45.22-.19,0-.36-.1-.46-.27-.11-.18-.09-.39.05-.63h-.02ZM76.86,26.47s-.05.1-.08.15c-.11.19-.25.43-.06.56.05.03.11.05.16.05.09,0,.17-.05.21-.12.05-.08.05-.18,0-.27l-.22-.37ZM76.72,25.73c-.64,0-1.82.3-2.33.64-.2.13-.5.41-.28.74.68-.53,1.6-.68,2.49-.79.03-.03.06-.07.08-.11.04-.07.08-.14.17-.14.12.02.16.08.19.13.03.04.05.08.08.08.02,0,.03,0,.04,0,.04,0,.05,0,.07,0h.37c.79-.01,1.48.06,2.1.21.43.1.98.26,1.41.61.06-.12.08-.23.04-.34-.07-.2-.29-.39-.66-.57-.71-.34-1.66-.5-2.9-.5h-.13c-.12.12-.26.24-.4.24-.07,0-.13-.03-.2-.08-.02-.02-.04-.04-.05-.06-.03-.04-.05-.07-.11-.07h0ZM78.68,23.64s-.07,0-.09.02l-.74.74c-.05.06-.07.13-.1.2-.01.04-.02.07-.04.1-.13.29-.34.53-.54.77l-.11.13c.37-.29.69-.6,1.13-.68.31-.27.6-.56.89-.85.07-.07.34-.35.4-.42-.17,0-.33.01-.5.01h-.11s-.05,0-.08,0c-.04,0-.08,0-.12,0ZM78.97,23.35c.11,0,.22,0,.32,0,.11,0,.21,0,.32,0,.06,0,.12,0,.18,0l.42-.42-.46-.46-.86.87h.08ZM79.85,21.86s-.07.04-.09.09c-.02.04-.01.07,0,.1.11.11.22.22.33.33.13.12.26.25.38.38.02.02.04.04.05.07.05.07.1.14.19.14.05,0,.1-.02.13-.06.03-.03.03-.07.02-.11l-.86-.89s-.07-.04-.12-.04h-.04ZM82.03,20.42c-.06,0-.12.02-.18.06-.08.06-.19.18-.29.28-.05.05-.09.1-.13.13l-.28.27c-.24.23-.48.46-.7.7l.33.41,1.42-1.38c.08-.09.1-.21.06-.32-.04-.1-.14-.16-.24-.16Z"/>
      <path class="cls-18" d="M78.35,27.22s-.09-.02-.13-.03c-.04-.01-.07-.02-.11-.03,0,0-.08,0-.09,0-.09,0-.13-.01-.16-.07-.02-.04-.02-.08,0-.12.03-.06.1-.11.17-.12,0,0,.02,0,.03,0,.09,0,.14.02.19.04.04.01.07.03.11.04.02,0,.05,0,.08,0,.1,0,.23.02.23.13,0,.04,0,.07-.03.09-.05.05-.14.06-.21.06h-.07Z"/>
      <path class="cls-17" d="M75.26,27.59c-.05,0-.09-.02-.1-.05-.03-.08,0-.16.09-.22.06-.04.11-.05.17-.05h.08s.12-.01.12-.01c.04,0,.08-.01.13-.01.06,0,.1.01.12.04.02.02.03.05.03.08,0,.05-.02.1-.06.13-.06.06-.15.07-.24.07h-.12s-.11.01-.11.01c-.04,0-.08.02-.12.02Z"/>
      <path class="cls-16" d="M79.29,27.64c-.06,0-.11-.04-.13-.09-.02-.04-.01-.09.02-.13.06-.08.19-.13.35-.13.06,0,.12,0,.17.02.06.02.11.07.13.13.01.05,0,.1-.04.14-.03.04-.06.05-.1.05-.03,0-.06-.01-.08-.02-.03-.01-.06-.02-.1-.02h0s-.07.01-.11.02c-.03.01-.06.02-.1.02h-.01Z"/>
      <path class="cls-14" d="M77.77,27.96c-.07,0-.37-.04-.41-.06-.06-.03-.1-.08-.09-.14,0-.06.06-.11.13-.13h.02c.16,0,.4.03.45.04.06.02.11.08.11.14,0,.06-.03.1-.09.12-.03.01-.09.02-.13.02h0Z"/>
    </g>
  </g>
  <g id="icon_for_showing_a_plot" data-name="icon for showing a plot">
    <g>
      <path class="cls-11" d="M138.62,80.32h13.09c.02-.09-.02-.06-.05-.09-.18-.14-.59-.32-.63-.55s.02-.42.26-.49c.21-.06.29.03.45.13.49.3.94.74,1.44,1.04.17.17.17.41.02.59-.17.19-1.25,1-1.49,1.14-.34.21-.74.04-.68-.38.04-.25.5-.44.65-.63h-16.45c-.11,0-.25-.26-.25-.36v-16.16s.07-.05.02-.06h-.06c-.19.56-.91.61-.83-.09.33-.41.61-.96.95-1.34.25-.29.43-.27.68,0,.34.37.64.97.95,1.38.07.37-.3.66-.62.39-.12-.1-.15-.27-.29-.34v15.82h2.86"/>
      <circle class="cls-24" cx="148.2" cy="73.23" r=".58"/>
      <circle class="cls-24" cx="145.04" cy="72.31" r=".57"/>
      <circle class="cls-24" cx="147.1" cy="78.12" r=".57"/>
      <circle class="cls-22" cx="143.59" cy="66.23" r=".57"/>
      <circle class="cls-24" cx="146.72" cy="76.04" r=".57"/>
      <circle class="cls-22" cx="145.23" cy="69.28" r=".57"/>
      <circle class="cls-22" cx="139.85" cy="70.34" r=".57"/>
      <circle class="cls-24" cx="139.69" cy="71.96" r=".57"/>
      <circle class="cls-22" cx="141.51" cy="71.45" r=".57"/>
      <circle class="cls-24" cx="149.31" cy="77.34" r=".57"/>
      <circle class="cls-24" cx="144.79" cy="74.56" r=".57"/>
      <circle class="cls-22" cx="138.19" cy="71.29" r=".57"/>
      <circle class="cls-24" cx="138.08" cy="73.09" r=".57"/>
      <path class="cls-24" d="M142.59,72.6c.86-.18.95,1.08.17,1.13-.65.04-.8-1-.17-1.13Z"/>
      <circle class="cls-24" cx="143.4" cy="78.08" r=".56"/>
      <circle class="cls-24" cx="141.68" cy="78.03" r=".56"/>
      <circle class="cls-22" cx="140.39" cy="64.81" r=".56"/>
      <path class="cls-24" d="M141.25,76.07c.75-.06.82,1.1.1,1.14s-.81-1.08-.1-1.14Z"/>
      <circle class="cls-24" cx="138.09" cy="76.61" r=".56"/>
      <circle class="cls-22" cx="142.74" cy="69.68" r=".56"/>
      <circle class="cls-24" cx="138.09" cy="74.79" r=".56"/>
      <circle class="cls-24" cx="143.31" cy="76.35" r=".56"/>
      <circle class="cls-24" cx="139.6" cy="73.75" r=".56"/>
      <circle class="cls-24" cx="140.68" cy="75.15" r=".56"/>
      <circle class="cls-24" cx="145.17" cy="77.45" r=".56"/>
      <circle class="cls-24" cx="139.25" cy="75.77" r=".56"/>
      <circle class="cls-24" cx="139.72" cy="77.3" r=".55"/>
      <circle class="cls-22" cx="140.99" cy="67.97" r=".56"/>
      <circle class="cls-24" cx="142.27" cy="74.9" r=".55"/>
      <circle class="cls-24" cx="138.19" cy="78.19" r=".55"/>
      <circle class="cls-22" cx="138.08" cy="69.18" r=".55"/>
      <circle class="cls-24" cx="141.11" cy="73.2" r=".55"/>
      <circle class="cls-22" cx="138.14" cy="67.14" r=".55"/>
    </g>
  </g>
  <g id="mouse_icon" data-name="mouse icon">
    <path class="cls-4" d="M18.43,60.25c1.85-1.83,3.95-.25,3.12,2.08-.41,1.14-1.43,1.88-2.63,2.02-.21.15-.11.36.14.36.63-.01,1.48-.45,1.95-.86.06-.05.2-.24.22-.25.03-.01.07-.01.1,0,.04.02.41.54.47.62,2.41,3.48,3.31,8.62,1.22,12.46-2.42,4.44-8.09,6.15-12.79,4.63-4.26-1.38-6.85-5.96-5.41-10.31.11-.34.44-1.13.69-1.36.08-.07.22-.09.24.03s-.21.79-.26.98c-.39,1.59-.43,3.26.18,4.8.87,2.2,2.96,4.43,5.53,4.1.04-.04-.13-.36-.15-.43-.13-.4-.13-.88-.7-.67s-1.01.54-1.62.07c-.98-.77-.56-3.13-1.62-4.36-.16-.19-.76-.59-.44-.86.17-.14.43.05.57.15.09.07.39.37.44.37.25.03,0-.35-.05-.43-.12-.19-.45-.48-.51-.63-.08-.19,0-.38.23-.35.33.04.85,1,.94,1.02l.1-.03c.1-.16-.49-.96-.41-1.21.11-.37.56.17.65.3.75,1.07.83,2.43,1.17,3.63.06.21.15.33.39.3s.42-.5.57-.7c.42-.58,1.26-1.31,1.93-1.57,1.63-.65,3.52.04,4.21,1.67.06.13.18.63.28.66.31.1.24-.26.19-.43-.43-1.57-1.97-2.57-3.58-2.49-1.05.05-1.95.54-2.68,1.27-.02,0-.02-.03-.01-.04.2-.64.97-1.64,1.34-2.25.16-.27.3-.54.46-.81,1.23.3,2.26,1.06,3.56,1.14.67.04,1.65-.12,2.2-.52.21-.15.16-.39-.08-.36-.11.01-.53.28-.71.35-.87.3-1.91.17-2.76-.13-1.06-.38-2-1.18-3.13-.51-.14.08-.57.51-.7.24-.1-.2.21-.46.35-.59.09-.08.3-.15.23-.29-.05-.11-.19-.03-.27,0-.21.1-.58.45-.74.49-.25.06-.25-.22-.12-.39.1-.13.7-.61.69-.66-.03-.21-.58.12-.72.15-.23.04-.44-.07-.26-.29.16-.18.95-.55,1.2-.64,1.14-.38,1.83.03,2.91.23.79.15,1.5.15,2.27-.06.15-.04.84-.19.54-.46-.13-.11-.49.08-.66.13-.88.22-1.72.13-2.6-.04-.23-.04-.56-.09-.77-.17-.04-.01-.09-.03-.09-.07l.1-.28c1.17,0,2.38-.36,3.27-1.13.16-.14.49-.47.6-.63.14-.21-.07-.38-.27-.24-.8,1.02-2.04,1.61-3.33,1.67-.4.02-.79-.05-1.18-.03-.79.04-1.56.42-2.35.51-1.22.14-3.02-.26-3.77-1.33-.63-.89.08-1.49.47-2.24.48-.94.61-2.04,1.05-3.03.93-2.12,3.19-3.94,5.47-4.4,1.87-.38,3.97-.04,5.3,1.4.03.04,0,.05-.02.07-.06.06-.25.17-.33.24-.74.66-1.2,1.79-1.27,2.78-.01.19-.09.86.27.69.18-.08.1-.36.12-.51.1-.86.47-1.95,1.1-2.57ZM12.02,64.35c-1.2.07-1.24,1.88.1,1.67,1.01-.16,1.11-1.74-.1-1.67Z"/>
    <circle id="mouse_eye" data-name="mouse eye" class="cls-9" cx="12.11" cy="65.19" r=".61"/>
  </g>
  <text class="cls-23" transform="translate(4.41 53.5) scale(1.03 1)"><tspan x="0" y="0">MEFs</tspan></text>
  <g id="iEP_cells-reprogrammed" data-name="iEP cells-reprogrammed">
    <path class="cls-5" d="M147.92,27.26c-.05.58-.91,1.03-1.39.73-.12-.07-.13-.21,0-.27.19-.09.49.19.88-.15.62-.55-.04-1.52-.79-1.19-.14.06-.39.43-.52.25-.21-.29.57-.63.81-.63s.38.16.63.05c.19-.08.8-.64.98-.81.21-.2.48-.46.67-.67.15-.17.52-.57.52-.78-.02-.59-.16-1.24-.18-1.84,0-.1,0-.21.01-.31.05-.26.85-.86,1.09-1.06,1.22-1.03,2.49-1.99,3.7-3.03.26-.15.52-.08.69.15.6.99,1.91,2,2.45,2.97.05.08.06.25.1.3.11.13.39-.13.61.33.47,1.02.64,2.52,1.07,3.59.07.24-.11.36-.13.58-.06.67.12,1.64.14,2.33.02.56.04.88-.61.97l-5.78.39c-.19-.03-.29-.13-.41-.25-.26-.26-1.05-1.48-1.28-1.55l-3.27-.1ZM150.27,24.02l2.14.71h.24s4.78-3.73,4.78-3.73v-.06s-2.53-3.1-2.53-3.1l-.16-.02-4.66,3.82-.05.17.24,2.21ZM157.83,21.35c-.57.08-1.67,1.13-2.17,1.51-.78.6-1.97,1.67-2.77,2.12-.06.03-.18.11-.24.12-.29.05-.91-.36-1.09-.24-.06.04-.19.66-.16.74l1.62,1.3.17.05,5.86-1.82.07-.07-1.03-3.59c-.04-.15-.12-.14-.26-.13ZM150.02,24.31c-.36.35-.65.75-1.01,1.09-.15.14-1.11.88-1.12.95-.02.09.11.15.19.14.2-.02.65-.18.88-.25.41-.12.87-.28,1.28-.43.15-.05.75-.27.82-.35s.19-.67.14-.76l-1.16-.39ZM148.16,26.77l-.05.1s.06.06.11.07c.46.08,1.22.03,1.71.04.11,0,.2.05.31.05.28,0,.88.04,1.12,0,.14-.03.43-.5.52-.65-.2-.12-.62-.58-.82-.56-.94.38-1.91.68-2.89.95Z"/>
    <g>
      <path class="cls-2" d="M130.54,30.92c.11-.03.22-.01.33.01.36.08.99.4,1.4.53,1.25.4,2.41.54,3.49,1.36,2.66,2.03,3.1,7.96-.85,8.79-2.34.49-4.88-1.07-5.54-3.34s.4-3.67.73-5.77c.06-.37.02-1.48.44-1.58ZM130.63,31.23c-.15.05-.14.74-.17.91-.38,2.43-1.8,4.5-.42,6.94,1.07,1.89,3.72,2.95,5.72,1.91,2.76-1.43,1.96-6.3-.23-7.94-1.02-.77-2.3-.93-3.49-1.32-.39-.13-.87-.39-1.22-.48-.07-.02-.13-.04-.2-.02Z"/>
      <path class="cls-2" d="M130.63,31.23c.07-.02.13,0,.2.02.35.1.83.36,1.22.48,1.19.39,2.46.55,3.49,1.32,2.18,1.64,2.99,6.5.23,7.94-2,1.04-4.65-.02-5.72-1.91-1.38-2.43.04-4.5.42-6.94.03-.17.02-.86.17-.91ZM135.82,36.6c0-1.24-1-2.24-2.24-2.24s-2.24,1-2.24,2.24,1,2.24,2.24,2.24,2.24-1,2.24-2.24Z"/>
      <path class="cls-2" d="M135.82,36.6c0,1.24-1,2.24-2.24,2.24s-2.24-1-2.24-2.24,1-2.24,2.24-2.24,2.24,1,2.24,2.24ZM135.53,36.6c0-1.08-.87-1.95-1.95-1.95s-1.95.87-1.95,1.95.87,1.95,1.95,1.95,1.95-.87,1.95-1.95Z"/>
      <circle class="cls-2" cx="133.58" cy="36.6" r="1.95"/>
    </g>
    <g>
      <g>
        <path class="cls-2" d="M126.8,24.25c.1-.02.19-.02.28.01.27.08.62,1.04.78,1.33,1.12,2.06,2.13,3.72,1.5,6.21-.91,3.6-5.75,3.25-6.58-.14-.74-3.03,1.82-4.29,3.27-6.39.16-.24.5-.95.74-1.01ZM126.89,24.56c-.41.55-.76,1.14-1.2,1.68-1.18,1.44-2.88,2.49-2.74,4.62.24,3.7,5.24,4.47,6.13.88.59-2.36-.4-3.94-1.45-5.89-.11-.2-.54-1.2-.62-1.26-.04-.03-.07-.06-.13-.04Z"/>
        <path class="cls-2" d="M126.89,24.56c.05-.02.09,0,.13.04.08.07.52,1.06.62,1.26,1.04,1.94,2.04,3.52,1.45,5.89-.89,3.58-5.89,2.82-6.13-.88-.14-2.13,1.55-3.19,2.74-4.62.44-.53.79-1.12,1.2-1.68ZM128.02,30.48c0-1.1-.89-1.99-1.99-1.99s-1.99.89-1.99,1.99.89,1.99,1.99,1.99,1.99-.89,1.99-1.99Z"/>
        <path class="cls-2" d="M128.02,30.48c0,1.1-.89,1.99-1.99,1.99s-1.99-.89-1.99-1.99.89-1.99,1.99-1.99,1.99.89,1.99,1.99ZM127.71,30.48c0-.93-.75-1.68-1.68-1.68s-1.68.75-1.68,1.68.75,1.68,1.68,1.68,1.68-.75,1.68-1.68Z"/>
        <circle class="cls-2" cx="126.03" cy="30.48" r="1.68"/>
      </g>
      <g>
        <path class="cls-2" d="M122.34,34.13c.25-.04,1.26.45,1.57.56,1.64.6,2.86.87,3.92,2.4,2.06,2.97.5,6.12-3.24,5.22-2.14-.52-3.15-2.79-2.91-4.84.06-.56.28-1.15.31-1.71.03-.46-.28-1.53.35-1.63ZM122.38,34.45c-.07.03-.11.08-.12.15-.07.34.03.91,0,1.3-.04.59-.27,1.16-.31,1.75-.2,2.72,1.74,5,4.58,4.45,3.41-.66,1.69-5.18-.5-6.25l-3.65-1.41Z"/>
        <path class="cls-2" d="M122.38,34.45l3.65,1.41c2.2,1.07,3.91,5.59.5,6.25-2.84.55-4.79-1.73-4.58-4.45.04-.59.27-1.16.31-1.75.03-.38-.06-.96,0-1.3.01-.07.05-.12.12-.15ZM127.06,38.9c0-1.08-.88-1.96-1.96-1.96s-1.96.88-1.96,1.96.88,1.96,1.96,1.96,1.96-.88,1.96-1.96Z"/>
        <path class="cls-2" d="M127.06,38.9c0,1.08-.88,1.96-1.96,1.96s-1.96-.88-1.96-1.96.88-1.96,1.96-1.96,1.96.88,1.96,1.96ZM126.77,38.9c0-.92-.74-1.66-1.66-1.66s-1.66.74-1.66,1.66.74,1.66,1.66,1.66,1.66-.74,1.66-1.66Z"/>
        <circle class="cls-2" cx="125.11" cy="38.9" r="1.66"/>
      </g>
    </g>
    <g>
      <path class="cls-2" d="M130.09,20.78c.36-.07,1.03.55,1.34.75,2.5,1.56,5.74,1.59,6.24,5.24.63,4.55-5.92,6.34-7.43,1.91-.75-2.2-.67-3.69-.55-5.95.02-.43-.17-1.83.39-1.95ZM130.17,21.1c-.1.01-.15.28-.16.37-.04.38.02.82,0,1.21-.13,2.25-.21,3.84.58,6.01,1.44,3.96,7.52,2.26,6.76-2.05-.54-3.08-3.28-3.27-5.51-4.5-.24-.13-1.58-1.05-1.68-1.04Z"/>
      <path class="cls-2" d="M130.17,21.1c.1-.01,1.44.91,1.68,1.04,2.23,1.22,4.97,1.42,5.51,4.5.76,4.32-5.32,6.01-6.76,2.05-.79-2.17-.72-3.77-.58-6.01.02-.39-.04-.83,0-1.21,0-.09.05-.36.16-.37ZM135.77,26.68c0-1.18-.96-2.14-2.14-2.14s-2.14.96-2.14,2.14.96,2.14,2.14,2.14,2.14-.96,2.14-2.14Z"/>
      <path class="cls-2" d="M135.77,26.68c0,1.18-.96,2.14-2.14,2.14s-2.14-.96-2.14-2.14.96-2.14,2.14-2.14,2.14.96,2.14,2.14ZM135.46,26.68c0-1.02-.82-1.84-1.84-1.84s-1.84.82-1.84,1.84.82,1.84,1.84,1.84,1.84-.82,1.84-1.84Z"/>
      <circle class="cls-2" cx="133.63" cy="26.68" r="1.84"/>
    </g>
    <g>
      <g>
        <path class="cls-2" d="M130.05,41.64c.09-.02.21-.02.3,0,.28.03,1.06.51,1.41.65,1.28.51,2.81.75,3,2.47.41,3.74-5.73,4.29-5.65.18.01-.61.44-2.28.63-2.91.05-.16.12-.33.3-.37ZM130.14,41.91c-.08.03-.1.13-.12.2-.19.59-.6,2.16-.63,2.73-.18,3.81,5.51,3.34,5.1-.03-.21-1.72-1.99-1.88-3.26-2.44-.24-.1-.89-.53-1.09-.46Z"/>
        <path class="cls-2" d="M130.14,41.91c.21-.07.86.36,1.09.46,1.27.56,3.05.71,3.26,2.44.41,3.38-5.28,3.84-5.1.03.03-.58.44-2.14.63-2.73.02-.07.04-.17.12-.2ZM133.51,45.14c0-.89-.72-1.61-1.61-1.61s-1.61.72-1.61,1.61.72,1.61,1.61,1.61,1.61-.72,1.61-1.61Z"/>
        <path class="cls-2" d="M133.51,45.14c0,.89-.72,1.61-1.61,1.61s-1.61-.72-1.61-1.61.72-1.61,1.61-1.61,1.61.72,1.61,1.61ZM133.23,45.14c0-.73-.59-1.33-1.33-1.33s-1.33.59-1.33,1.33.59,1.33,1.33,1.33,1.33-.59,1.33-1.33Z"/>
        <circle class="cls-2" cx="131.9" cy="45.14" r="1.33"/>
      </g>
      <g>
        <g>
          <path class="cls-2" d="M142.7,40.92c.21-.05.78-.02,1.02-.01,1.49.06,4.04.34,5.28,1.18,1.39.95,1.87,2.72,1.08,4.23-1.47,2.79-5.42,1.57-6.8-.66-.7-1.14-.65-2.06-.74-3.34-.03-.37-.34-1.29.17-1.4ZM142.72,41.23c.16,1.56,0,3.16.95,4.5,1.61,2.26,5.9,2.98,6.49-.41.64-3.69-4.5-4.1-7.01-4.14-.15,0-.28.04-.42.05Z"/>
          <path class="cls-2" d="M142.72,41.23c.14-.01.28-.05.42-.05,2.51.04,7.65.45,7.01,4.14-.58,3.38-4.88,2.66-6.49.41-.95-1.34-.79-2.94-.95-4.5ZM148.59,44.51c0-1.13-.91-2.04-2.04-2.04s-2.04.91-2.04,2.04.91,2.04,2.04,2.04,2.04-.91,2.04-2.04Z"/>
          <path class="cls-2" d="M148.59,44.51c0,1.13-.91,2.04-2.04,2.04s-2.04-.91-2.04-2.04.91-2.04,2.04-2.04,2.04.91,2.04,2.04ZM148.31,44.51c0-.97-.78-1.75-1.75-1.75s-1.75.78-1.75,1.75.78,1.75,1.75,1.75,1.75-.78,1.75-1.75Z"/>
          <circle class="cls-2" cx="146.56" cy="44.51" r="1.75"/>
        </g>
        <g>
          <path class="cls-2" d="M138.62,41.11c1.25-.07,2.35.54,2.99,1.61.58.95.56,2.04.92,3.07.19.52.69,1.25.57,1.78-.07.3-.34.32-.59.3-.58-.05-1.23-.25-1.85-.31-.85-.09-1.76-.03-2.6-.14-4.16-.51-3.57-6.08.55-6.31ZM138.8,41.37c-3.9.01-4.65,5.4-.55,5.78.49.05,1.04,0,1.53.04.97.07,1.93.18,2.88.4.11.01.17-.05.19-.16.06-.31-.45-1.19-.58-1.57-.36-1-.33-2.06-.88-2.98s-1.49-1.52-2.58-1.52Z"/>
          <path class="cls-2" d="M138.8,41.37c1.09,0,2.04.6,2.58,1.52s.52,1.98.88,2.98c.13.37.64,1.26.58,1.57-.02.1-.09.17-.19.16-.94-.22-1.91-.33-2.88-.4-.49-.04-1.04,0-1.53-.04-4.1-.38-3.35-5.76.55-5.78ZM140.58,44.44c0-1.05-.85-1.89-1.89-1.89s-1.89.85-1.89,1.89.85,1.89,1.89,1.89,1.89-.85,1.89-1.89Z"/>
          <path class="cls-2" d="M140.58,44.44c0,1.05-.85,1.89-1.89,1.89s-1.89-.85-1.89-1.89.85-1.89,1.89-1.89,1.89.85,1.89,1.89ZM140.29,44.44c0-.88-.72-1.6-1.6-1.6s-1.6.72-1.6,1.6.72,1.6,1.6,1.6,1.6-.72,1.6-1.6Z"/>
          <circle class="cls-2" cx="138.69" cy="44.44" r="1.6"/>
        </g>
      </g>
    </g>
    <g>
      <path class="cls-2" d="M140.86,22.13c.44-.03.97.97,1.27,1.31.71.81,1.66,1.38,2.38,2.2,3.26,3.7.61,7.57-4.06,6.39-4.21-1.07-1.7-5.8-.53-8.28.13-.28.54-1.41.71-1.54.04-.03.17-.08.23-.08ZM140.89,22.44c-.07.04-.12.11-.17.18-.21.36-.38.92-.57,1.32-.97,2.06-3.34,6.5-.05,7.66,4.17,1.47,7.41-1.79,4.3-5.56-.81-.98-1.9-1.6-2.69-2.56-.14-.17-.69-1.05-.83-1.04Z"/>
      <path class="cls-2" d="M140.89,22.44c.15-.01.69.87.83,1.04.79.96,1.88,1.58,2.69,2.56,3.11,3.77-.14,7.03-4.3,5.56-3.29-1.16-.92-5.6.05-7.66.19-.4.36-.96.57-1.32.04-.07.09-.14.17-.18ZM144.18,28.12c0-1.15-.93-2.09-2.09-2.09s-2.09.93-2.09,2.09.93,2.09,2.09,2.09,2.09-.93,2.09-2.09Z"/>
      <path class="cls-2" d="M144.18,28.12c0,1.15-.93,2.09-2.09,2.09s-2.09-.93-2.09-2.09.93-2.09,2.09-2.09,2.09.93,2.09,2.09ZM143.88,28.13c0-.99-.8-1.79-1.79-1.79s-1.79.8-1.79,1.79.8,1.79,1.79,1.79,1.79-.8,1.79-1.79Z"/>
      <circle class="cls-2" cx="142.1" cy="28.13" r="1.79"/>
    </g>
    <g>
      <g>
        <path class="cls-2" d="M147.95,28.99c.09-.02.15-.02.24.01.27.08.55.94.71,1.22,1.07,1.89,3.04,3.04,3.65,5.27.93,3.39-3.96,6.23-6.24,2.92-1.84-2.68-.49-5.96.91-8.49.15-.27.42-.87.73-.93ZM147.99,29.3c-.14.04-.67,1.06-.77,1.25-1.18,2.27-2.28,5.08-.8,7.49,1.34,2.19,4.09,2.01,5.44-.03,1.94-2.92-1.98-5.39-3.23-7.61-.11-.19-.43-1.01-.51-1.07-.04-.03-.07-.06-.13-.04Z"/>
        <path class="cls-2" d="M147.99,29.3c.05-.02.09,0,.13.04.08.06.4.88.51,1.07,1.25,2.23,5.17,4.69,3.23,7.61-1.35,2.04-4.1,2.22-5.44.03-1.47-2.41-.38-5.22.8-7.49.1-.19.64-1.22.77-1.25ZM151.12,35.91c0-1.14-.92-2.06-2.06-2.06s-2.06.92-2.06,2.06.92,2.06,2.06,2.06,2.06-.92,2.06-2.06Z"/>
        <path class="cls-2" d="M151.12,35.91c0,1.14-.92,2.06-2.06,2.06s-2.06-.92-2.06-2.06.92-2.06,2.06-2.06,2.06.92,2.06,2.06ZM150.82,35.92c0-.97-.79-1.76-1.76-1.76s-1.76.79-1.76,1.76.79,1.76,1.76,1.76,1.76-.79,1.76-1.76Z"/>
        <circle class="cls-2" cx="149.06" cy="35.92" r="1.76"/>
      </g>
      <g>
        <path class="cls-2" d="M138.03,31.82c.43-.1,1.42.42,1.87.57,2.19.76,4.44.91,5.12,3.59s-1.77,5.31-4.46,4.55c-2.96-.83-1.94-4.87-2.45-7.1-.09-.37-.63-1.49-.07-1.61ZM138.12,32.13c-.08.02-.07.07-.07.14.03.29.25.78.33,1.11.45,2.03-.39,6.22,2.28,6.88s4.78-1.74,4.06-4.28-2.85-2.55-4.9-3.26c-.3-.11-1.47-.65-1.7-.58Z"/>
        <path class="cls-2" d="M138.12,32.13c.22-.07,1.39.47,1.7.58,2.06.72,4.2.78,4.9,3.26s-1.52,4.91-4.06,4.28c-2.67-.66-1.82-4.85-2.28-6.88-.07-.33-.3-.83-.33-1.11,0-.07-.01-.11.07-.14ZM143.7,36.81c0-1.1-.9-2-2-2s-2,.9-2,2,.9,2,2,2,2-.9,2-2Z"/>
        <path class="cls-2" d="M143.7,36.81c0,1.1-.9,2-2,2s-2-.9-2-2,.9-2,2-2,2,.9,2,2ZM143.41,36.81c0-.94-.76-1.7-1.7-1.7s-1.7.76-1.7,1.7.76,1.7,1.7,1.7,1.7-.76,1.7-1.7Z"/>
        <circle class="cls-2" cx="141.71" cy="36.81" r="1.7"/>
      </g>
    </g>
  </g>
  <g id="dead-end_fate_cells" data-name="dead-end fate cells">
    <path class="cls-6" d="M114.83,70.07c1.23-.13,3.13,1.19,2.64,2.54-.45,1.23-2.28.73-3.04.07-.95-.81-1.12-2.45.4-2.61ZM114.76,70.32c-.53.07-.89.49-.84,1.03.11,1.05,1.45,1.9,2.45,1.78,1.08-.13,1.19-1.11.58-1.87-.51-.62-1.37-1.06-2.19-.95Z"/>
    <g>
      <path class="cls-6" d="M120.8,77.12c-.45.47-.58.88-.25,1.49.2.37.85,1.04.88,1.39.07.84-1.14-.22-1.41-.36-1.1-.62-1.68-.21-2.17.83-.1.22-.3.88-.45,1-.32.29-.46-.27-.5-.49-.09-.45-.06-.89-.27-1.32-.44-.86-1.68-.37-2.41-.35-.25,0-.43-.04-.37-.33.11-.47,1.64-.86,1.75-1.68.12-.87-1.02-1.37-1.05-1.94-.01-.19.11-.3.29-.29.56.02,1.34.55,1.95.48.95-.11,1-1.39,1.34-2.02.15-.29.38-.28.5.02.26.64.04,1.69.69,2.18s1.31.02,1.98-.03c.21-.02.78-.05.72.29-.05.27-.98.89-1.22,1.14ZM118.41,73.57c-.08-.01-.06,0-.08.05-.12.22-.21.66-.32.92-.18.43-.39.94-.85,1.13-.8.34-1.61-.3-2.4-.36.34.73,1.34,1.27,1,2.22-.28.78-1.22.97-1.71,1.55.82,0,2.1-.52,2.67.34.37.56.31,1.25.48,1.87.08.02.06-.01.08-.05.46-.7.51-2,1.67-2.11,1.01-.1,1.34.62,2.08.93.06.02.11.04.17.03-.18-.67-.98-1.19-1.06-1.9-.12-1.01.82-1.42,1.43-2,.04-.04.25-.23.19-.28-.83-.06-1.8.57-2.56.03-.67-.48-.61-1.65-.8-2.37Z"/>
      <path class="cls-3" d="M118.41,73.57c.19.72.13,1.89.8,2.37.76.54,1.73-.09,2.56-.03.06.06-.15.24-.19.28-.61.58-1.55.98-1.43,2,.08.7.87,1.23,1.06,1.9-.06,0-.11,0-.17-.03-.74-.31-1.07-1.03-2.08-.93-1.16.12-1.21,1.41-1.67,2.11-.02.03,0,.06-.08.05-.17-.62-.11-1.31-.48-1.87-.57-.86-1.84-.34-2.67-.34.48-.58,1.43-.77,1.71-1.55.34-.95-.66-1.49-1-2.22.79.06,1.6.7,2.4.36.46-.19.68-.7.85-1.13.11-.26.2-.7.32-.92.02-.04,0-.06.08-.05Z"/>
    </g>
    <g>
      <path class="cls-6" d="M124.88,71.61c-.06.08-.23.09-.33.1-.72.03-1.69-.46-2.25.25-.3.39-.24.82-.32,1.27-.03.16-.09.5-.32.43-.32-.09-.78-1.34-1.03-1.66-.52-.66-1.41.16-2.04.18-.74.03.09-.77.22-.95.51-.71.19-1.18-.37-1.71-.18-.17-.87-.66-.91-.86-.1-.48.8-.2,1.04-.19.72.04,1.3-.07,1.57-.8.12-.31.2-1.36.47-1.48.32-.15.37.46.44.65.37.99,1.17,1.28,2.18,1.01.46-.13,1.26-.66.87.34-.25.63-.84,1.06-.53,1.81.08.2.31.44.48.58.2.17,1.11.69.84,1.03ZM120.72,66.45c-.08-.01-.06,0-.08.04-.13.28-.15.77-.25,1.1-.4,1.34-1.43,1.1-2.54,1-.05,0-.08-.05-.07.04.64.62,1.91,1.38,1.41,2.44l-.63.87c.66-.02,1.28-.62,1.95-.34.48.2.76,1.15,1.03,1.59.02.03.15.26.21.2.06-.65.06-1.4.65-1.81.63-.44,1.31-.14,1.99-.1.06,0,.32.04.3-.05-.37-.51-1.06-.72-1.32-1.34-.4-.98.42-1.43.61-2.29-1.4.75-2.99.38-3.26-1.35Z"/>
      <path class="cls-3" d="M120.72,66.45c.27,1.72,1.85,2.1,3.26,1.35-.19.86-1.01,1.31-.61,2.29.25.62.94.83,1.32,1.34.02.09-.24.06-.3.05-.68-.04-1.36-.35-1.99.1-.59.41-.58,1.17-.65,1.81-.05.06-.19-.17-.21-.2-.27-.43-.56-1.39-1.03-1.59-.67-.28-1.29.31-1.95.34l.63-.87c.5-1.06-.77-1.82-1.41-2.44-.01-.09.02-.04.07-.04,1.11.1,2.13.34,2.54-1,.1-.32.12-.81.25-1.1.02-.05,0-.06.08-.04Z"/>
    </g>
    <g>
      <path class="cls-6" d="M108.58,76.45c.83-.86,1.84-.55,2.3.49.54,1.24.28,3.22-.52,4.31s-2,.97-2.52-.3-.24-3.47.75-4.5ZM109.41,76.2c-1.03.18-1.57,2.03-1.62,2.91-.05.8.14,2.24.99,2.59,1.16.47,1.92-1.37,2.08-2.24.17-.98.08-3.52-1.45-3.26Z"/>
      <path class="cls-3" d="M109.41,76.2c1.53-.26,1.62,2.28,1.45,3.26-.15.88-.92,2.72-2.08,2.24-.85-.35-1.04-1.79-.99-2.59.05-.88.59-2.74,1.62-2.91Z"/>
    </g>
    <path class="cls-3" d="M114.76,70.32c.82-.11,1.68.32,2.19.95.62.75.5,1.74-.58,1.87-.99.12-2.34-.74-2.45-1.78-.05-.54.31-.96.84-1.03Z"/>
    <g>
      <g>
        <path class="cls-6" d="M112.3,67.29c-.27-.27.49-.84.65-1.02.99-1.14-.24-1.6-.71-2.48-.1-.18-.24-.45-.09-.62.43-.06.78.26,1.22.3,1.31.11,1.38-1.29,1.99-2.05s.61.18.7.6c.13.59.51,1.01,1.13,1.06.57.05,1.39-.27,1.91-.03.56.26-.26.67-.47.86-.75.68-.63,1.46-.1,2.23.17.25.72.74.62,1.06-.07.23-.48.11-.64.05-.37-.13-.95-.6-1.26-.66-.11-.02-.28-.02-.39.02-.57.21-.66,1.68-.92,2.19-.08.16-.18.31-.38.19s-.26-.92-.32-1.16c-.19-.75-.54-.95-1.3-.85-.32.04-1.45.49-1.64.31ZM119.05,63.26c-.88-.27-1.74.37-2.57-.17-.62-.4-.62-1.06-.77-1.71-.46.47-.6,1.15-.98,1.68-.65.9-1.51.78-2.4.31.16.67.87,1.03,1.11,1.66.21.54.07.92-.28,1.35-.08.09-.72.66-.66.74.83-.15,2.01-.82,2.67,0,.35.43.3.97.44,1.47.01.05.02.18.09.15.09-.03.3-1.04.35-1.2.11-.38.28-.92.65-1.12.75-.41,1.46.66,2.2.66.06-.06-.53-.74-.6-.84-.59-.87-.68-1.74.15-2.49.06-.05.62-.45.59-.49Z"/>
        <path class="cls-3" d="M119.05,63.26s-.53.44-.59.49c-.83.75-.74,1.62-.15,2.49.06.09.66.78.6.84-.73,0-1.45-1.06-2.2-.66-.37.2-.54.74-.65,1.12-.05.17-.26,1.18-.35,1.2-.07.02-.08-.11-.09-.15-.14-.5-.09-1.04-.44-1.47-.66-.82-1.85-.15-2.67,0-.07-.08.58-.65.66-.74.35-.42.49-.81.28-1.35-.24-.63-.95-.99-1.11-1.66.89.47,1.75.59,2.4-.31.38-.53.52-1.2.98-1.68.15.64.15,1.3.77,1.71.84.54,1.7-.1,2.57.17Z"/>
      </g>
      <g>
        <path class="cls-6" d="M107.81,62.4c1.02.97,2.09.03,3.13-.16.41-.07,1.13-.04.61.5-.42.44-1.66.97-1.73,1.63-.13,1.15,1.65,1.95,1.73,2.87.06.68-.83.09-1.12-.01-1.37-.49-1.59.12-2.54.88-.51.41-1.1.91-1.63,1.27-.43.29-.96.6-.9-.22.04-.56.28-1.09-.06-1.64-.53-.87-1.9-.23-2.63-.06-.26.06-.8.2-.99-.03-.24-.29.27-.54.47-.66.59-.36,1.98-.93,1.81-1.8-.15-.8-1.43-1.78-1.4-2.49s.93.19,1.15.34c.88.61,1.75.77,2.21-.39.21-.52.28-1.04.6-1.52.09-.14.42-.53.57-.57.52-.14.29.73.29,1,0,.38.16.81.44,1.07ZM107.16,60.61c-.06-.02-.07.03-.11.05-.87.67-.65,2.39-1.74,2.8-.98.37-1.79-.49-2.51-1.01.17.93,1.55,1.84,1.41,2.84-.13.9-1.7,1.46-2.33,1.96-.01.08.04.05.09.05.6.05,1.43-.41,2.09-.46,1.15-.09,1.73.48,1.65,1.65-.01.13-.21.92-.08.94.24-.04.46-.22.66-.36.82-.57,1.56-1.32,2.36-1.88.51-.36.83-.41,1.45-.29.42.09.79.34,1.2.44-.1-.59-.66-.98-1.03-1.4-.34-.39-.74-.99-.71-1.52.06-.88,1.35-1.32,1.84-1.93-.77-.07-1.41.45-2.15.56-1.03.16-2.04-.45-2.14-1.54-.03-.3.05-.6.03-.9Z"/>
        <path class="cls-3" d="M107.16,60.61c.01.3-.06.6-.03.9.1,1.08,1.11,1.7,2.14,1.54.74-.12,1.38-.63,2.15-.56-.49.6-1.79,1.05-1.84,1.93-.03.53.37,1.13.71,1.52.37.42.92.81,1.03,1.4-.42-.11-.78-.36-1.2-.44-.62-.13-.94-.07-1.45.29-.8.56-1.55,1.31-2.36,1.88-.2.14-.42.33-.66.36-.12-.03.07-.81.08-.94.09-1.16-.49-1.74-1.65-1.65-.66.05-1.49.51-2.09.46-.05,0-.1.03-.09-.05.63-.49,2.2-1.05,2.33-1.96.14-1-1.24-1.91-1.41-2.84.72.52,1.53,1.38,2.51,1.01,1.09-.41.86-2.13,1.74-2.8.04-.03.04-.07.11-.05ZM108.58,65.39c0-.86-.69-1.55-1.55-1.55s-1.55.69-1.55,1.55.69,1.55,1.55,1.55,1.55-.69,1.55-1.55Z"/>
        <path class="cls-6" d="M108.58,65.39c0,.86-.69,1.55-1.55,1.55s-1.55-.69-1.55-1.55.69-1.55,1.55-1.55,1.55.69,1.55,1.55ZM108.33,65.39c0-.72-.58-1.3-1.3-1.3s-1.3.58-1.3,1.3.58,1.3,1.3,1.3,1.3-.58,1.3-1.3Z"/>
        <circle class="cls-3" cx="107.03" cy="65.39" r="1.3"/>
      </g>
    </g>
    <g>
      <g>
        <path class="cls-6" d="M102.22,69.25c.38-.09.77.27,1.04.51.33.29.94,1.08,1.34,1.14.45.07.66-.35,1.01-.56.56-.34,1.43-.39,1.97.03s-.19.61-.46.85c-1.15,1,.03,1.66.69,2.39.22.24.85.95.89,1.23.02.14.02.26-.13.31-.53.16-1.28-.68-1.97-.27-.9.53.1,1.91-.05,2.67-.03.17-.15.26-.32.24-.41-.05-.95-1.18-1.46-1.41-.81-.36-1.82.6-2.5.96-.79.42-1.2.22-.65-.62.29-.45,1.02-1.1.86-1.69-.1-.38-1.22-1.01-1.59-1.17-.24-.11-1.01-.32-1.12-.51-.13-.25.14-.39.34-.46.67-.23,1.53.08,1.97-.65s-.16-1.63-.12-2.42c0-.18.07-.49.27-.54ZM108.47,74.91c-.41-1.37-3.2-2.31-1.51-3.86.17-.16.37-.26.55-.41-.29-.39-1.07-.4-1.5-.25-.47.17-.86.8-1.35.77-.53-.04-1.18-.91-1.58-1.26-.14-.12-.61-.5-.79-.44-.06.04-.08.13-.09.19-.14.95.78,2.04-.11,2.9-.53.51-1.18.34-1.81.49-.15.04-.46.11-.21.25.22.13.61.21.88.33.47.21,1.53.81,1.72,1.29.27.69-.59,1.44-.91,1.98-.08.13-.18.26-.16.42,1.15-.23,2.34-1.96,3.56-.95.42.35.64.95,1.15,1.2.14-.8-.52-1.55-.25-2.36.22-.66.85-.79,1.47-.62.15.04.86.39.94.32Z"/>
        <path class="cls-3" d="M108.47,74.91c-.08.07-.79-.28-.94-.32-.62-.17-1.24-.05-1.47.62-.27.81.39,1.56.25,2.36-.51-.25-.73-.85-1.15-1.2-1.21-1.01-2.41.73-3.56.95-.01-.16.08-.29.16-.42.32-.54,1.18-1.28.91-1.98-.19-.48-1.25-1.08-1.72-1.29-.26-.12-.65-.2-.88-.33-.25-.14.06-.21.21-.25.63-.16,1.28.02,1.81-.49.89-.86-.03-1.95.11-2.9,0-.07.03-.16.09-.19.18-.06.65.31.79.44.4.35,1.05,1.22,1.58,1.26.49.03.87-.6,1.35-.77.43-.15,1.2-.14,1.5.25-.18.15-.38.25-.55.41-1.7,1.55,1.09,2.49,1.51,3.86ZM105.86,73.57c0-.81-.65-1.46-1.46-1.46s-1.46.65-1.46,1.46.65,1.46,1.46,1.46,1.46-.65,1.46-1.46Z"/>
        <path class="cls-6" d="M105.86,73.57c0,.81-.65,1.46-1.46,1.46s-1.46-.65-1.46-1.46.65-1.46,1.46-1.46,1.46.65,1.46,1.46ZM105.63,73.56c0-.68-.55-1.23-1.23-1.23s-1.23.55-1.23,1.23.55,1.23,1.23,1.23,1.23-.55,1.23-1.23Z"/>
        <circle class="cls-3" cx="104.4" cy="73.56" r="1.23"/>
      </g>
      <g>
        <path class="cls-6" d="M110.16,68.41c.62-.13.47.61.51.97.2,2.01,1.78,1.97,2.65,3.48.72,1.25.45,2.05.13,3.34-.04.14-.02.49-.18.53-.11.03-1.1-.61-1.3-.71-1.21-.62-2.09-.84-2.84-2.12-.85-1.46-.77-2.6-.06-4.09.17-.37.67-1.3,1.09-1.38ZM110.34,68.61c-.19-.12-.66.53-.75.67-.96,1.47-1.18,2.97-.25,4.53.78,1.3,1.81,1.48,3.03,2.14.1.06.78.51.81.48.15-.83.5-1.52.34-2.38-.42-2.38-2.84-2.31-3.07-4.44-.02-.17,0-.94-.11-1Z"/>
        <path class="cls-3" d="M110.34,68.61c.11.07.09.84.11,1,.23,2.13,2.65,2.06,3.07,4.44.15.86-.19,1.55-.34,2.38-.04.03-.71-.42-.81-.48-1.21-.67-2.24-.84-3.03-2.14-.93-1.55-.71-3.05.25-4.53.09-.14.56-.79.75-.67ZM110.37,71.88c-.71.09-.63.94-.39,1.43.15.29.52.7.8.87.88.52,1.61.03,1.27-.98-.21-.62-.97-1.4-1.67-1.32Z"/>
        <path class="cls-6" d="M110.37,71.88c.7-.09,1.46.7,1.67,1.32.35,1.01-.39,1.5-1.27.98-.28-.17-.65-.57-.8-.87-.24-.49-.32-1.35.39-1.43ZM110.37,72.12c-.62.11-.2,1.1.05,1.42.27.35,1.28,1.02,1.46.31s-.8-1.86-1.52-1.73Z"/>
        <path class="cls-3" d="M110.37,72.12c.71-.13,1.69,1.05,1.52,1.73s-1.2.04-1.46-.31c-.25-.32-.67-1.31-.05-1.42Z"/>
      </g>
    </g>
  </g>
  <g id="on-target_arrow_path_successfull_reprogramming" data-name="on-target arrow path successfull reprogramming">
    <path class="cls-10" d="M31.44,32.71c-2.62.11,87.85.29,87.85.29"/>
    <g>
      <path class="cls-8" d="M31.44,32.71c-2.25.09,64.04.24,82.91.28"/>
      <path class="cls-13" d="M119.29,33c-2.33.86-5.22,2.33-7.02,3.88l1.42-3.9-1.4-3.9c1.79,1.57,4.67,3.05,7,3.91Z"/>
    </g>
  </g>
  <g id="off-target_arrow_path" data-name="off-target arrow path">
    <path class="cls-10" d="M111.36,57.68c-6.77-15.86-20.84-24.68-23.45-24.68"/>
    <g>
      <path class="cls-7" d="M109.18,53.23c-7.23-13.05-18.92-20.24-21.27-20.24"/>
      <path class="cls-15" d="M111.36,57.68c-.27-2.47-.24-5.71.36-8.01l-2.86,3-4.12.48c2.2.9,4.81,2.83,6.62,4.53Z"/>
    </g>
  </g>
  <text class="cls-23" transform="translate(31.44 29.14) scale(1.03 1)"><tspan x="0" y="0">Foxa1-Hnf4a</tspan></text>
  <text class="cls-23" transform="translate(133.23 55.55) scale(1.03 1)"><tspan x="0" y="0">iEP</tspan></text>
  <text class="cls-23" transform="translate(99.98 90.87) scale(1.03 1)"><tspan x="0" y="0">Dead-end</tspan></text>
  <g id="MEF_Cells_plate" data-name="MEF Cells plate">
    <path class="cls-1" d="M27.18,31.68c0,7.51-6.08,13.59-13.59,13.59S0,39.19,0,31.68s6.08-13.59,13.59-13.59,13.59,6.08,13.59,13.59ZM26.58,31.68c0-7.17-5.82-12.99-12.99-12.99S.6,24.5.6,31.68s5.82,12.99,12.99,12.99,12.99-5.82,12.99-12.99Z"/>
    <path class="cls-21" d="M14.06,35.88c.05-.02.11-.02.16,0,.25.04,1.14,1.51,1.69,1.63.74.16,1.17-.92,1.58-.9.09,0,.2.08.23.17.06.2-.31.93-.37,1.21-.14.65-.09.92.49,1.25.4.23.92.32,1.29.52.23.12.35.4.06.51-.52.19-1.62-.15-1.96.37-.23.35-.06.84.03,1.21.06.25.4.9-.12.89-.17,0-.55-.49-.71-.62-.77-.65-1.13-.51-1.95-.06-.22.12-1.12.87-1.3.51-.14-.29.39-.9.55-1.18.44-.81.41-1.06-.27-1.69-.41-.39-.93-.68-1.34-1.07-.13-.22,0-.4.24-.41.46.09,1.5.61,1.87.15.33-.4-.27-1.62-.3-2.11,0-.12-.03-.31.12-.36Z"/>
    <path class="cls-10" d="M17.09,37.46c-.27.18-.5.44-.84.47-.77.08-1.15-.56-1.66-.99.44,1.25.11,2.38-1.42,1.9.5.57,1.37.95,1.29,1.83-.04.45-.35.79-.52,1.18.97-.63,1.98-.94,2.89,0-.43-1.21.16-2.1,1.46-1.98l-.62-.26c-.97-.49-.92-1.23-.59-2.15Z"/>
    <path class="cls-20" d="M15.61,38.85c.65-.11.99,1,.37,1.36-.87.51-1.24-1.22-.37-1.36Z"/>
    <path class="cls-21" d="M14.51,20.04c.05-.02.11-.02.16,0,.19.03.7,1.02.91,1.25.36.4.66.57,1.18.37.25-.1,1.02-.79,1.16-.33.07.25-.34.73-.4,1.04-.23,1.16,1.09,1.43,1.73,2.03.21.2.14.45-.13.47-.26.02-.93-.24-1.29-.26-1.05-.06-1.38.38-1.56,1.33-.06.3.04.97-.45.82-.21-.06-.42-.98-.54-1.23-.38-.76-.88-.83-1.65-.65-.27.06-1.2.55-1.06-.07.08-.37,1.03-.77.98-1.43-.02-.33-.58-.86-.82-1.08-.27-.25-1.04-.65-.28-.88.41.08,1.44.79,1.81.55.31-.2.05-1.33.11-1.69.01-.08.07-.2.16-.23ZM14.86,20.98h-.09c.21,1.08-.28,1.8-1.42,1.34.15.21.36.39.48.62.33.64.02,1.05-.4,1.54.76-.16,1.47-.18,1.97.5l.44.88c.06-1.31,1.17-1.89,2.37-1.59.03-.12-.06-.08-.14-.13-.58-.41-1.11-.85-1.01-1.65.03-.23.14-.42.21-.63-.99.72-1.94.09-2.41-.86Z"/>
    <path class="cls-10" d="M14.86,20.98c.47.95,1.43,1.58,2.41.86-.07.21-.18.4-.21.63-.09.79.43,1.23,1.01,1.65.08.06.17.01.14.13-1.2-.3-2.31.29-2.37,1.59l-.44-.88c-.5-.68-1.21-.66-1.97-.5.42-.48.73-.9.4-1.54-.12-.23-.33-.41-.48-.62,1.14.46,1.63-.26,1.42-1.34h.09ZM15.46,22.93c-.74.11-.67,1.08.12,1.15,1,.09.93-1.3-.12-1.15Z"/>
    <path d="M15.46,22.93c1.04-.15,1.12,1.24.12,1.15-.78-.07-.86-1.05-.12-1.15Z"/>
    <path class="cls-21" d="M5.31,36.09c-.09-.1-.07-.27.03-.35.29-.25,1.42.29,2-.15s.5-1.43.81-1.99c.1-.18.24-.22.4-.08.17.16.28,1.1.44,1.41.45.84,1.24-.53,1.61-.69.2-.08.4-.02.42.2.02.25-.23.64-.33.88-.31.8-.47,1.26.35,1.76.21.13.97.35.62.68-.21.19-.99.05-1.42.34-.68.47-.36,1.66-.49,2.36-.05.3-.31.41-.5.13-.24-.35-.3-.75-.63-1.13-.47-.54-.81-.62-1.49-.36-.35.13-.93.6-1.19.66-.33.08-.5-.08-.37-.41.12-.3.77-.92.99-1.29.46-.8.19-1.15-.52-1.57-.16-.09-.66-.29-.75-.39ZM9.39,39.76v-.84s.05-.28.06-.33c.16-.67.72-1.08,1.4-1.12-.04-.08-.17-.1-.25-.15-.9-.61-.61-1.4-.26-2.26-.63.64-1.39.91-1.8-.12l-.18-.57c-.16.78-.5,1.69-1.4,1.81l-.54.02c1.32.65.81,1.87.04,2.74.61-.3,1.24-.57,1.91-.25.46.22.7.7,1.02,1.07Z"/>
    <path class="cls-10" d="M9.39,39.76c-.31-.37-.56-.85-1.02-1.07-.67-.32-1.3-.04-1.91.25.77-.87,1.27-2.09-.04-2.74l.54-.02c.9-.12,1.24-1.03,1.4-1.81l.18.57c.4,1.02,1.17.76,1.8.12-.35.85-.64,1.65.26,2.26.08.06.21.08.25.15-.68.04-1.24.45-1.4,1.12-.01.05-.06.3-.06.33v.84ZM8.61,36.45c-.68.08-.98,1.22-.3,1.36.89.18,1.29-1.15.48-1.34-.07-.02-.1-.03-.17-.02Z"/>
    <path d="M8.61,36.45c.08,0,.11,0,.17.02.81.19.41,1.52-.48,1.34-.67-.14-.37-1.28.3-1.36Z"/>
    <path class="cls-21" d="M21.4,31.31c-.1.1-.38.09-.46-.06s-.13-.67-.19-.89c-.29-1.09-.65-1.42-1.81-1.14-.23.06-.85.35-1.02.27-.6-.27.41-.85.6-1.03.67-.61.8-.96.32-1.78-.14-.24-.84-.91-.31-1.05.21-.06.9.38,1.22.4.89.05,1.19-1.42,1.49-2,.09-.18.18-.28.38-.13.22.16.11.8.13,1.07.02.22.08.57.18.77.38.76,1.33-.08,1.83-.09.13,0,.3.1.31.23.04.42-1.32,1.24-1.07,2.11.13.44.93.96.95,1.21.04.54-.94.08-1.23.06-.43-.03-.57.07-.76.44-.13.27-.49,1.54-.56,1.61ZM23.31,26.28c-.75.26-1.51.36-1.83-.52l-.15-.82c-.31.77-.79,1.58-1.74,1.46-.16-.02-.3-.11-.46-.12.43.61.67,1.36.17,2l-.6.58c.72-.2,1.64-.3,2.08.44l.46,1.11c.3-.92.6-1.89,1.81-1.55-.12-.2-.3-.36-.4-.57-.37-.82.2-1.4.65-2.01Z"/>
    <path class="cls-10" d="M23.31,26.28c-.46.61-1.02,1.19-.65,2.01.1.22.28.37.4.57-1.21-.33-1.51.63-1.81,1.55l-.46-1.11c-.44-.74-1.35-.65-2.08-.44l.6-.58c.5-.64.26-1.4-.17-2,.16.01.29.1.46.12.95.12,1.43-.69,1.74-1.46l.15.82c.32.88,1.08.77,1.83.52ZM20.97,27.06c-.68.1-.67,1.12-.04,1.26.93.22.98-1.4.04-1.26Z"/>
    <path d="M20.97,27.06c.95-.14.9,1.48-.04,1.26-.63-.15-.64-1.17.04-1.26Z"/>
    <g>
      <path class="cls-21" d="M12.03,27.59c.25-.02.76.78.94.98.67.73.92.68,1.38-.17.16-.3.35-1.14.75-.54.05,1.18-.52,2.26,1.06,2.43.24.03.61-.09.75.16.06.11.03.23-.06.32-.14.14-.74.32-.97.5-.8.6.07,1.93.25,2.67,0,.18-.08.34-.27.32-.18-.02-.69-.67-.89-.84-.36-.31-.92-.72-1.41-.59-.22.05-.53.28-.7.42-.15.13-.42.49-.57.55-.23.1-.43-.03-.42-.28.03-.64.51-1.29.09-1.95-.33-.53-1.26-.54-1.72-.86-.08-.48.23-.36.53-.41.32-.06,1-.18,1.18-.45.28-.44-.08-1.26-.12-1.76-.01-.17-.05-.46.19-.48Z"/>
      <path class="cls-21" d="M14.68,28.75c-.22.26-.32.6-.68.72-.75.26-1.22-.51-1.65-.98.32,1.04.16,1.94-1.03,2.13,1.16.36,1.49,1.32,1.12,2.43.95-1.02,2.11-.72,2.97.22-.17-.71-.55-1.52.03-2.15l.62-.43c-1.15-.05-1.59-.87-1.38-1.94Z"/>
      <path class="cls-10" d="M14.68,28.75c-.21,1.07.23,1.89,1.38,1.94l-.62.43c-.58.62-.2,1.44-.03,2.15-.87-.94-2.02-1.23-2.97-.22.37-1.11.04-2.08-1.12-2.43,1.2-.19,1.36-1.1,1.03-2.13.43.47.9,1.24,1.65.98.36-.12.46-.46.68-.72ZM13.37,30.35c-.69.14-.37,1.42.5,1.28.78-.12.4-1.47-.5-1.28Z"/>
      <path d="M13.37,30.35c.9-.19,1.28,1.16.5,1.28-.88.14-1.19-1.14-.5-1.28Z"/>
    </g>
    <path class="cls-21" d="M4.34,27.28c.1-.03.22,0,.29.08.54.78.87,2.25,2.1,1.97.35-.08,1-.5,1.22-.51s.34.18.25.39c-.07.17-.43.56-.55.78-.5.91-.17,1.25.43,1.94.16.18.86.68.44.87s-1.27-.59-1.9-.22c-.43.25-.58.99-.66,1.45-.03.18.04.38-.14.5-.49.32-.67-.79-.8-1.09-.27-.64-.45-.89-1.19-.72-.32.07-.87.4-1.14.42s-.41-.22-.28-.45c.06-.11.35-.33.46-.45.46-.53.8-.84.24-1.49-.2-.22-.92-.62-.97-.8-.14-.51.74-.27.95-.26,1.62.09,1.05-1.11,1.1-2.22.01-.07.09-.17.16-.19ZM4.66,28.3v.8c0,.09-.18.49-.24.58-.3.41-.94.51-1.4.39-.03.1.02.07.05.1.23.19.39.28.57.55.47.73.07,1.17-.41,1.72.82-.28,1.5-.4,2,.43l.37.81c.07-.56.42-1.38.99-1.57.4-.14.77-.04,1.16.08-.26-.34-.62-.63-.75-1.06-.17-.59.12-1.15.44-1.63-.03-.03-.33.15-.41.17-.62.21-1.33.06-1.77-.43l-.62-.95Z"/>
    <path class="cls-10" d="M4.66,28.3l.62.95c.44.49,1.15.64,1.77.43.08-.03.38-.2.41-.17-.33.48-.62,1.04-.44,1.63.13.43.49.72.75,1.06-.39-.12-.76-.22-1.16-.08-.57.19-.92,1.01-.99,1.57l-.37-.81c-.5-.84-1.18-.71-2-.43.47-.55.87-.99.41-1.72-.17-.27-.34-.36-.57-.55-.03-.03-.08,0-.05-.1.46.12,1.1.02,1.4-.39.06-.09.24-.49.24-.58v-.8ZM5.16,30.38c-.77.16-.37,1.39.44,1.22s.49-1.41-.44-1.22Z"/>
    <path d="M5.16,30.38c.93-.19,1.29,1.05.44,1.22s-1.21-1.06-.44-1.22Z"/>
    <path class="cls-21" d="M6.73,28.42c-.18-.18.21-1.56-.18-2.08-.41-.55-2.05-.41-2.35-.84-.08-.13-.05-.23.04-.34.14-.17.88-.22,1.15-.31.78-.27.94-.77.49-1.46-.15-.23-.65-.61-.35-.86.28-.23.52.09.77.22.22.12.83.46,1.05.46.49.01.88-.61,1.06-1,.06-.14.21-.66.27-.72.09-.09.31-.06.39.04.28.36-.3,1.95.55,1.93.47,0,1.01-.23,1.47-.3.69.25-.41.9-.67,1.19-.15.17-.44.57-.47.79-.06.52.75,1.3.72,1.53,0,.05-.08.16-.12.18-.23.11-.91-.31-1.24-.35-.83-.11-1.18.33-1.61.95-.13.18-.52.92-.61.98s-.29.06-.36-.01ZM7.15,26.73c.03.25-.02.54,0,.8l.45-.65c.68-.79,1.28-1.03,2.31-.65-.18-.29-.41-.73-.38-1.09.05-.52.52-1,.85-1.37-.59.1-1.33.37-1.57-.39-.07-.23-.15-.59-.06-.82-.1-.02-.07.01-.1.06-.38.59-.72,1.15-1.55.97-.28-.06-.51-.22-.77-.33.73,1.06-.2,1.94-1.25,2.09.53.24,1.28.19,1.7.62.18.18.34.5.36.76Z"/>
    <path class="cls-10" d="M7.15,26.73c-.03-.25-.19-.57-.36-.76-.42-.43-1.17-.39-1.7-.62,1.05-.15,1.98-1.03,1.25-2.09.26.12.48.27.77.33.83.19,1.17-.37,1.55-.97.03-.04,0-.08.1-.06-.09.23,0,.58.06.82.24.75.98.49,1.57.39-.34.37-.8.85-.85,1.37-.03.35.2.79.38,1.09-1.03-.39-1.63-.15-2.31.65l-.45.65c-.02-.25.03-.55,0-.8ZM7.75,24.35c-.62.13-.79,1.22.03,1.2.95-.02,1.02-1.42-.03-1.2Z"/>
    <path d="M7.75,24.35c1.05-.22.99,1.18.03,1.2-.82.02-.65-1.07-.03-1.2Z"/>
    <path class="cls-21" d="M22.61,38.82c-.1.1-.38.09-.46-.06s-.13-.67-.19-.89c-.29-1.09-.65-1.42-1.81-1.14-.23.06-.85.35-1.02.27-.6-.27.41-.85.6-1.03.67-.61.8-.96.32-1.78-.14-.24-.84-.91-.31-1.05.21-.06.91.48,1.22.4.76-.19.87-1.14,1.16-1.72.09-.18.18-.31.34-.13.18.2.25.63.34.89.08.21.21.55.3.74.34.7,1.49.05,1.86-.16.11-.06.3.1.31.23.04.42-1.32,1.24-1.07,2.11.13.44.93.96.95,1.21.04.54-.94.08-1.23.06-.43-.03-.57.07-.76.44-.13.27-.49,1.54-.56,1.61ZM24.52,33.87c-.75.26-1.51.36-1.83-.52l-.36-.99c-.31.77-.58,1.75-1.54,1.63-.16-.02-.3-.11-.46-.12.43.61.67,1.36.17,2l-.6.58c.72-.2,1.64-.3,2.08.44l.46,1.11c.3-.92.6-1.89,1.81-1.55-.12-.2-.3-.36-.4-.57-.37-.82.2-1.4.65-2.01Z"/>
    <path d="M22.12,34.51c.95-.14.9,1.48-.04,1.26-.63-.15-.64-1.17.04-1.26Z"/>
  </g>
</svg>