<?xml version="1.0" encoding="UTF-8"?>
<svg id="Layer_1" xmlns="http://www.w3.org/2000/svg" xmlns:xlink="http://www.w3.org/1999/xlink" version="1.1" viewBox="0 0 159.43 76.14">
  <!-- Generator: Adobe Illustrator 30.0.0, SVG Export Plug-In . SVG Version: 2.1.1 Build 123)  -->
  <defs>
    <style>
      .st0 {
        fill: #e94484;
      }

      .st1 {
        fill: #f9d2e0;
      }

      .st1, .st2 {
        stroke: #010101;
        stroke-width: .1px;
      }

      .st1, .st2, .st3, .st4, .st5, .st6, .st7 {
        stroke-miterlimit: 10;
      }

      .st8, .st2 {
        fill: #010101;
      }

      .st9 {
        fill: url(#linear-gradient2);
      }

      .st10 {
        fill: url(#linear-gradient1);
      }

      .st11 {
        fill: url(#linear-gradient3);
      }

      .st12 {
        fill: url(#linear-gradient6);
      }

      .st13 {
        fill: url(#linear-gradient8);
      }

      .st14 {
        fill: url(#linear-gradient4);
      }

      .st15, .st3, .st4, .st16 {
        stroke-linecap: round;
      }

      .st15, .st16 {
        stroke-linejoin: round;
      }

      .st15, .st16, .st5, .st6, .st17 {
        fill: #fffcff;
      }

      .st15, .st6 {
        stroke: #41ac40;
        stroke-width: .5px;
      }

      .st18 {
        fill: url(#linear-gradient);
      }

      .st19 {
        fill: #262323;
      }

      .st20 {
        fill: #c0153e;
      }

      .st21, .st22 {
        isolation: isolate;
      }

      .st22 {
        fill: #060404;
        font-family: ArialMT, Arial;
        font-size: 7px;
      }

      .st3 {
        stroke: url(#linear-gradient7);
      }

      .st3, .st4 {
        fill: none;
      }

      .st4 {
        stroke: url(#linear-gradient5);
      }

      .st16 {
        stroke: #1e3764;
      }

      .st16, .st5, .st7 {
        stroke-width: .31px;
      }

      .st23 {
        fill: #fff;
      }

      .st5, .st7 {
        stroke: #e41913;
      }

      .st7 {
        fill: #2a1700;
      }
    </style>
    <linearGradient id="linear-gradient" x1="73.72" y1="-1357.81" x2="82.59" y2="-1357.81" gradientTransform="translate(0 -1350) scale(1 -1)" gradientUnits="userSpaceOnUse">
      <stop offset="0" stop-color="#262323"/>
      <stop offset=".31" stop-color="#11070e" stop-opacity=".9"/>
      <stop offset="1" stop-color="#57b031"/>
    </linearGradient>
    <linearGradient id="linear-gradient1" x1="77.84" y1="-1360.04" x2="78.67" y2="-1360.04" gradientTransform="translate(0 -1350) scale(1 -1)" gradientUnits="userSpaceOnUse">
      <stop offset="0" stop-color="#262323"/>
      <stop offset=".31" stop-color="#11070e" stop-opacity=".9"/>
      <stop offset="1" stop-color="#57b031"/>
    </linearGradient>
    <linearGradient id="linear-gradient2" x1="75.16" y1="-1360.42" x2="75.91" y2="-1360.42" gradientTransform="translate(0 -1350) scale(1 -1)" gradientUnits="userSpaceOnUse">
      <stop offset="0" stop-color="#262323"/>
      <stop offset=".31" stop-color="#11070e" stop-opacity=".9"/>
      <stop offset="1" stop-color="#57b031"/>
    </linearGradient>
    <linearGradient id="linear-gradient3" x1="79.15" y1="-1360.47" x2="79.84" y2="-1360.47" gradientTransform="translate(0 -1350) scale(1 -1)" gradientUnits="userSpaceOnUse">
      <stop offset="0" stop-color="#262323"/>
      <stop offset=".31" stop-color="#11070e" stop-opacity=".9"/>
      <stop offset="1" stop-color="#57b031"/>
    </linearGradient>
    <linearGradient id="linear-gradient4" x1="77.27" y1="-1360.79" x2="77.98" y2="-1360.79" gradientTransform="translate(0 -1350) scale(1 -1)" gradientUnits="userSpaceOnUse">
      <stop offset="0" stop-color="#262323"/>
      <stop offset=".31" stop-color="#11070e" stop-opacity=".9"/>
      <stop offset="1" stop-color="#57b031"/>
    </linearGradient>
    <linearGradient id="linear-gradient5" x1="30.88" y1="-1365.85" x2="119.78" y2="-1365.85" gradientTransform="translate(0 -1350) scale(1 -1)" gradientUnits="userSpaceOnUse">
      <stop offset="0" stop-color="#262323"/>
      <stop offset=".31" stop-color="#010202"/>
      <stop offset="1" stop-color="#57b031"/>
    </linearGradient>
    <linearGradient id="linear-gradient6" x1="30.89" y1="-1365.98" x2="119.79" y2="-1365.98" gradientTransform="translate(0 -1350) scale(1 -1)" gradientUnits="userSpaceOnUse">
      <stop offset="0" stop-color="#262323"/>
      <stop offset=".31" stop-color="#010202"/>
      <stop offset="1" stop-color="#57b031"/>
    </linearGradient>
    <linearGradient id="linear-gradient7" x1="87.41" y1="-1376.11" x2="111.86" y2="-1376.11" gradientTransform="translate(0 -1350) scale(1 -1)" gradientUnits="userSpaceOnUse">
      <stop offset="0" stop-color="#262323"/>
      <stop offset=".56" stop-color="#e62340"/>
    </linearGradient>
    <linearGradient id="linear-gradient8" x1="87.41" y1="-1386.67" x2="111.86" y2="-1386.67" gradientTransform="translate(0 -1350) scale(1 -1)" gradientUnits="userSpaceOnUse">
      <stop offset="0" stop-color="#262323"/>
      <stop offset=".56" stop-color="#e62340"/>
    </linearGradient>
  </defs>
  <g id="microscope">
    <g>
      <path class="st8" d="M56.46,35.56l.42-1.47-5.11-3.11c-.23-.18-.32-.36-.18-.63.11-.22.32-.55.61-.45l5.02,3.06s.02,0,.03-.03c.17-.4.42-.72.83-.89.68-.28,1.35-.02,1.8.52.67-.47,1.2-1.2,1.45-1.99.43-1.35.19-2.75-.66-3.88-.14-.18-.7-.81-.9-.82-.06,0-.1.02-.15.02-.24,0-.53-.07-.73-.22l-1.51,2.42c-.16.17-.34.13-.53.04-.07.04-.35.61-.46.73-.1.11-.28.15-.41.1-.42-.27-.93-.51-1.33-.79-.57-.41.04-.79.22-1.24v-.03c-.2-.07-.25-.23-.22-.43l3.63-5.93c.15-.19.35-.26.59-.19.11.03.25.17.31.08l.41-.69c-.23-.11-.41-.29-.31-.57.02-.06.35-.57.39-.6.17-.15.36-.06.52.03.63.32,1.25.78,1.86,1.14.09.09.12.18.11.31,0,.12-.29.56-.39.65-.21.2-.44.14-.64-.02h-.03s-.4.63-.43.69c0,.02-.02.03,0,.05.9.46-.03,1.26-.3,1.81.24.17.42.36.55.62.04.08.07.23.11.28.06.07.36.25.46.33,2.91,2.39,2.86,7.27-.09,9.6-.09.07-.36.23-.42.29-.02.02-.03.03-.02.06l.66,1.13c.07.04.98,0,1.16,0,.55.04,1.03.45,1.15.99.04.2.06.76.03.96-.02.11-.14.25-.25.28-4.09.04-8.19.02-12.29,0-.15-.04-.26-.16-.28-.32-.13-.9.2-1.82,1.2-1.93h4.09l.03.02s0,.02,0,.02ZM59.94,19.02l-.17.29,1.71,1.02.17-.29-1.71-1.02ZM60.03,20l-.46.77.68.41.46-.77-.68-.41ZM58.68,20.85l-3.48,5.66,1.86,1.15,1.44-2.29c-.67-.84-.16-2.16.89-2.34.2-.03.37,0,.56,0l.64-1.02c.02-.08-.05-.11-.11-.15-.53-.37-1.15-.65-1.68-1.01-.03-.02-.08-.03-.11,0h0ZM60.58,24.47c0-.52-.42-.95-.95-.95s-.95.42-.95.95.42.95.95.95.95-.42.95-.95ZM60.7,34s.04,0,.05-.02c.3-.18.69-.56.93-.82,1.91-2.1,2.03-5.28.28-7.52-.26-.34-.55-.66-.9-.91-.08.19-.13.38-.24.55-.13.19-.28.29-.45.42.03,0,.05.02.07.03.74.65,1.32,1.62,1.52,2.59.37,1.81-.37,3.59-1.82,4.69l.57.98h0ZM55.3,27.18l-.37.6,1.13.69.37-.6-1.13-.69ZM52.11,30.37l-.11.18,5.03,3.1.11-.18-5.03-3.1ZM61.07,35.57l-1.59-2.72c-.35-.51-1.11-.6-1.54-.14-.24.26-.34.72-.45,1.05-.19.6-.35,1.2-.52,1.8h4.11,0ZM63.5,37.35v-.63c0-.37-.5-.73-.85-.7h-10.13c-.36-.04-.87.36-.87.72v.61h11.85Z"/>
      <circle class="st8" cx="58.69" cy="33.65" r=".5"/>
    </g>
  </g>
  <g id="icon_for_foxa1-hnf4a">
    <title>Foxa1 and Hnf4a transcription factor induction that drives MEFs toward an iEP (induced endoderm progenitor) program.</title>
    <g>
      <path class="st18" d="M77.64,12.49c-.8,0-1.58-.09-2.24-.27-.48-.13-1.59-.49-1.65-1.15-.03-.32-.02-.88,0-1.2.05-.73,1.18-1.1,1.84-1.25.42-.1.82-.15,1.19-.17l.19-.2c.18-.2.36-.4.47-.63.03-.05.04-.1.06-.15.03-.09.07-.18.15-.28.09-.1.19-.2.29-.29.07-.06.13-.12.19-.18l.49-.5c.31-.31.61-.62.93-.93,0-.01-.01-.05-.03-.09-.08-.21-.05-.35.03-.46s.22-.18.36-.18c.11,0,.22.04.31.13l1.45-1.43c.11-.09.24-.13.37-.13.17,0,.32.07.43.19.11.13.15.29.13.47-.02.15-.11.25-.21.35-.27.3-.56.57-.84.84,0,0-.46.45-.52.5.14.13.18.31.12.47-.07.18-.24.29-.42.29-.07,0-.14-.02-.2-.05l-.09-.05-1.93,1.92c-.1.09-.23.13-.35.17-.12.04-.24.07-.34.15h.01c.59,0,1.14.06,1.67.17,1.27.27,1.96.72,2,1.31.02.33.02.83,0,1.16-.05.71-1.21,1.08-1.71,1.2-.64.16-1.37.25-2.14.25v.02h-.01ZM74.04,11.11s.05.1.05.12c.17.28.77.52.89.57.7.27,1.69.42,2.69.42h0c1.14,0,2.15-.19,2.85-.52.17-.08.67-.39.67-.59v-.62c-.6.52-1.45.69-2.04.79-.49.08-1.01.11-1.54.11-.62,0-1.23-.05-1.79-.16-.52-.1-1.28-.28-1.8-.75v.65s.02-.02.02-.02ZM76.43,9.63c-.13,0-.73.12-.83.15-.4.09-.91.24-1.28.53,0,.02.04.05.07.07.5.37,1.38.54,1.74.6.47.07.98.11,1.49.11.68,0,1.35-.07,1.94-.2.39-.08.96-.24,1.37-.57,0-.03-.17-.14-.21-.16-.6-.35-1.6-.53-2.33-.57h-1.13s.03.05.05.08c.02.05.05.09.07.14.06.19.04.37-.06.5s-.27.22-.45.22c-.19,0-.36-.1-.46-.27-.11-.18-.09-.39.05-.63h-.03ZM76.86,9.47s-.05.1-.08.15c-.11.19-.25.43-.06.56.05.03.11.05.16.05.09,0,.17-.05.21-.12.05-.08.05-.18,0-.27l-.22-.37h-.01ZM76.72,8.73c-.64,0-1.82.3-2.33.64-.2.13-.5.41-.28.74.68-.53,1.6-.68,2.49-.79.03-.03.06-.07.08-.11.04-.07.08-.14.17-.14.12.02.16.08.19.13.03.04.05.08.08.08h.48c.79-.01,1.48.06,2.1.21.43.1.98.26,1.41.61.06-.12.08-.23.04-.34-.07-.2-.29-.39-.66-.57-.71-.34-1.66-.5-2.9-.5h-.13c-.12.12-.26.24-.4.24-.07,0-.13-.03-.2-.08-.02-.02-.04-.04-.05-.06-.03-.04-.05-.07-.11-.07h.02ZM78.68,6.64s-.07,0-.09.02l-.74.74c-.05.06-.07.13-.1.2-.01.04-.02.07-.04.1-.13.29-.34.53-.54.77l-.11.13c.37-.29.69-.6,1.13-.68.31-.27.6-.56.89-.85.07-.07.34-.35.4-.42-.17,0-.33.01-.5.01h-.31v-.02h0ZM78.97,6.35h.82l.42-.42-.46-.46-.86.87h.08ZM79.85,4.86s-.07.04-.09.09c-.02.04-.01.07,0,.1.11.11.22.22.33.33.13.12.26.25.38.38.02.02.04.04.05.07.05.07.1.14.19.14.05,0,.1-.02.13-.06.03-.03.03-.07.02-.11l-.86-.89s-.07-.04-.12-.04h-.04.01ZM82.03,3.42c-.06,0-.12.02-.18.06-.08.06-.19.18-.29.28-.05.05-.09.1-.13.13l-.28.27c-.24.23-.48.46-.7.7l.33.41,1.42-1.38c.08-.09.1-.21.06-.32-.04-.1-.14-.16-.24-.16h0Z"/>
      <path class="st10" d="M78.35,10.22s-.09-.02-.13-.03-.07-.02-.11-.03h-.09c-.09,0-.13-.01-.16-.07-.02-.04-.02-.08,0-.12.03-.06.1-.11.17-.12h.03c.09,0,.14.02.19.04.04.01.07.03.11.04h.08c.1,0,.23.02.23.13,0,.04,0,.07-.03.09-.05.05-.14.06-.21.06h-.08Z"/>
      <path class="st9" d="M75.26,10.59c-.05,0-.09-.02-.1-.05-.03-.08,0-.16.09-.22.06-.04.11-.05.17-.05h.2s.08-.02.13-.02c.06,0,.1.01.12.04.02.02.03.05.03.08,0,.05-.02.1-.06.13-.06.06-.15.07-.24.07h-.23s-.08.03-.12.03h.01Z"/>
      <path class="st11" d="M79.29,10.64c-.06,0-.11-.04-.13-.09-.02-.04-.01-.09.02-.13.06-.08.19-.13.35-.13.06,0,.12,0,.17.02.06.02.11.07.13.13.01.05,0,.1-.04.14-.03.04-.06.05-.1.05-.03,0-.06-.01-.08-.02-.03-.01-.06-.02-.1-.02h0s-.07.01-.11.02c-.03.01-.06.02-.1.02h-.01,0Z"/>
      <path class="st14" d="M77.77,10.96c-.07,0-.37-.04-.41-.06-.06-.03-.1-.08-.09-.14,0-.06.06-.11.13-.13h.02c.16,0,.4.03.45.04.06.02.11.08.11.14s-.03.1-.09.12c-.03.01-.09.02-.13.02h.01Z"/>
    </g>
  </g>
  <g id="MEF_starting_population">
    <title>MEF culture dish: plated mouse embryonic fibroblasts, the starting population before induction toward iEP.</title>
    <g>
      <path class="st1" d="M20.43,43.25c1.85-1.83,3.95-.25,3.12,2.08-.41,1.14-1.43,1.88-2.63,2.02-.21.15-.11.36.14.36.63,0,1.48-.45,1.95-.86.06-.05.2-.24.22-.25h.1s.41.54.47.62c2.41,3.48,3.31,8.62,1.22,12.46-2.42,4.44-8.09,6.15-12.79,4.63-4.26-1.38-6.85-5.96-5.41-10.31.11-.34.44-1.13.69-1.36.08-.07.22-.09.24.03s-.21.79-.26.98c-.39,1.59-.43,3.26.18,4.8.87,2.2,2.96,4.43,5.53,4.1.04-.04-.13-.36-.15-.43-.13-.4-.13-.88-.7-.67s-1.01.54-1.62.07c-.98-.77-.56-3.13-1.62-4.36-.16-.19-.76-.59-.44-.86.17-.14.43.05.57.15.09.07.39.37.44.37.25.03,0-.35-.05-.43-.12-.19-.45-.48-.51-.63-.08-.19,0-.38.23-.35.33.04.85,1,.94,1.02l.1-.03c.1-.16-.49-.96-.41-1.21.11-.37.56.17.65.3.75,1.07.83,2.43,1.17,3.63.06.21.15.33.39.3s.42-.5.57-.7c.42-.58,1.26-1.31,1.93-1.57,1.63-.65,3.52.04,4.21,1.67.06.13.18.63.28.66.31.1.24-.26.19-.43-.43-1.57-1.97-2.57-3.58-2.49-1.05.05-1.95.54-2.68,1.27-.02,0-.02-.03-.01-.04.2-.64.97-1.64,1.34-2.25.16-.27.3-.54.46-.81,1.23.3,2.26,1.06,3.56,1.14.67.04,1.65-.12,2.2-.52.21-.15.16-.39-.08-.36-.11,0-.53.28-.71.35-.87.3-1.91.17-2.76-.13-1.06-.38-2-1.18-3.13-.51-.14.08-.57.51-.7.24-.1-.2.21-.46.35-.59.09-.08.3-.15.23-.29-.05-.11-.19-.03-.27,0-.21.1-.58.45-.74.49-.25.06-.25-.22-.12-.39.1-.13.7-.61.69-.66-.03-.21-.58.12-.72.15-.23.04-.44-.07-.26-.29.16-.18.95-.55,1.2-.64,1.14-.38,1.83.03,2.91.23.79.15,1.5.15,2.27-.06.15-.04.84-.19.54-.46-.13-.11-.49.08-.66.13-.88.22-1.72.13-2.6-.04-.23-.04-.56-.09-.77-.17-.04,0-.09-.03-.09-.07l.1-.28c1.17,0,2.38-.36,3.27-1.13.16-.14.49-.47.6-.63.14-.21-.07-.38-.27-.24-.8,1.02-2.04,1.61-3.33,1.67-.4.02-.79-.05-1.18-.03-.79.04-1.56.42-2.35.51-1.22.14-3.02-.26-3.77-1.33-.63-.89.08-1.49.47-2.24.48-.94.61-2.04,1.05-3.03.93-2.12,3.19-3.94,5.47-4.4,1.87-.38,3.97-.04,5.3,1.4.03.04,0,.05-.02.07-.06.06-.25.17-.33.24-.74.66-1.2,1.79-1.27,2.78-.01.19-.09.86.27.69.18-.08.1-.36.12-.51.1-.86.47-1.95,1.1-2.57h-.04,0ZM14.02,47.35c-1.2.07-1.24,1.88.1,1.67,1.01-.16,1.11-1.74-.1-1.67Z"/>
      <circle id="mouse_eye" class="st2" cx="14.11" cy="48.19" r=".61"/>
    </g>
    <g class="st21">
      <g class="st21">
        <g class="st21">
          <g class="st21">
            <g class="st21">
              <text class="st22" transform="translate(6.41 36.5) scale(1.03 1)"><title>MEF culture dish: plated mouse embryonic fibroblasts, the starting population before induction toward iEP.</title><tspan x="0" y="0">MEFs</tspan></text>
            </g>
          </g>
        </g>
      </g>
    </g>
    <circle class="st0" cx="15.59" cy="14.68" r="13.59"/>
    <circle class="st17" cx="15.59" cy="14.68" r="12.99"/>
    <path class="st20" d="M16.06,18.88c.05-.02.11-.02.16,0,.25.04,1.14,1.51,1.69,1.63.74.16,1.17-.92,1.58-.9.09,0,.2.08.23.17.06.2-.31.93-.37,1.21-.14.65-.09.92.49,1.25.4.23.92.32,1.29.52.23.12.35.4.06.51-.52.19-1.62-.15-1.96.37-.23.35-.06.84.03,1.21.06.25.4.9-.12.89-.17,0-.55-.49-.71-.62-.77-.65-1.13-.51-1.95-.06-.22.12-1.12.87-1.3.51-.14-.29.39-.9.55-1.18.44-.81.41-1.06-.27-1.69-.41-.39-.93-.68-1.34-1.07-.13-.22,0-.4.24-.41.46.09,1.5.61,1.87.15.33-.4-.27-1.62-.3-2.11,0-.12-.03-.31.12-.36v-.02s.01,0,.01,0Z"/>
    <path class="st23" d="M19.09,20.46c-.27.18-.5.44-.84.47-.77.08-1.15-.56-1.66-.99.44,1.25.11,2.38-1.42,1.9.5.57,1.37.95,1.29,1.83-.04.45-.35.79-.52,1.18.97-.63,1.98-.94,2.89,0-.43-1.21.16-2.1,1.46-1.98l-.62-.26c-.97-.49-.92-1.23-.59-2.15h.01Z"/>
    <path class="st19" d="M17.61,21.85c.65-.11.99,1,.37,1.36-.87.51-1.24-1.22-.37-1.36Z"/>
    <path class="st20" d="M16.51,3.04c.05-.02.11-.02.16,0,.19.03.7,1.02.91,1.25.36.4.66.57,1.18.37.25-.1,1.02-.79,1.16-.33.07.25-.34.73-.4,1.04-.23,1.16,1.09,1.43,1.73,2.03.21.2.14.45-.13.47-.26.02-.93-.24-1.29-.26-1.05-.06-1.38.38-1.56,1.33-.06.3.04.97-.45.82-.21-.06-.42-.98-.54-1.23-.38-.76-.88-.83-1.65-.65-.27.06-1.2.55-1.06-.07.08-.37,1.03-.77.98-1.43-.02-.33-.58-.86-.82-1.08-.27-.25-1.04-.65-.28-.88.41.08,1.44.79,1.81.55.31-.2.05-1.33.11-1.69.01-.08.07-.2.16-.23h-.02ZM16.86,3.98h-.09c.21,1.08-.28,1.8-1.42,1.34.15.21.36.39.48.62.33.64.02,1.05-.4,1.54.76-.16,1.47-.18,1.97.5l.44.88c.06-1.31,1.17-1.89,2.37-1.59.03-.12-.06-.08-.14-.13-.58-.41-1.11-.85-1.01-1.65.03-.23.14-.42.21-.63-.99.72-1.94.09-2.41-.86,0,0,0-.02,0-.02Z"/>
    <path class="st23" d="M16.86,3.98c.47.95,1.43,1.58,2.41.86-.07.21-.18.4-.21.63-.09.79.43,1.23,1.01,1.65.08.06.17.01.14.13-1.2-.3-2.31.29-2.37,1.59l-.44-.88c-.5-.68-1.21-.66-1.97-.5.42-.48.73-.9.4-1.54-.12-.23-.33-.41-.48-.62,1.14.46,1.63-.26,1.42-1.34h.09s0,.02,0,.02ZM17.46,5.93c-.74.11-.67,1.08.12,1.15,1,.09.93-1.3-.12-1.15Z"/>
    <path d="M17.46,5.93c1.04-.15,1.12,1.24.12,1.15-.78-.07-.86-1.05-.12-1.15Z"/>
    <path class="st20" d="M7.31,19.09c-.09-.1-.07-.27.03-.35.29-.25,1.42.29,2-.15s.5-1.43.81-1.99c.1-.18.24-.22.4-.08.17.16.28,1.1.44,1.41.45.84,1.24-.53,1.61-.69.2-.08.4-.02.42.2.02.25-.23.64-.33.88-.31.8-.47,1.26.35,1.76.21.13.97.35.62.68-.21.19-.99.05-1.42.34-.68.47-.36,1.66-.49,2.36-.05.3-.31.41-.5.13-.24-.35-.3-.75-.63-1.13-.47-.54-.81-.62-1.49-.36-.35.13-.93.6-1.19.66-.33.08-.5-.08-.37-.41.12-.3.77-.92.99-1.29.46-.8.19-1.15-.52-1.57-.16-.09-.66-.29-.75-.39h.02,0ZM11.39,22.76v-.84s.05-.28.06-.33c.16-.67.72-1.08,1.4-1.12-.04-.08-.17-.1-.25-.15-.9-.61-.61-1.4-.26-2.26-.63.64-1.39.91-1.8-.12l-.18-.57c-.16.78-.5,1.69-1.4,1.81l-.54.02c1.32.65.81,1.87.04,2.74.61-.3,1.24-.57,1.91-.25.46.22.7.7,1.02,1.07Z"/>
    <path class="st23" d="M11.39,22.76c-.31-.37-.56-.85-1.02-1.07-.67-.32-1.3-.04-1.91.25.77-.87,1.27-2.09-.04-2.74l.54-.02c.9-.12,1.24-1.03,1.4-1.81l.18.57c.4,1.02,1.17.76,1.8.12-.35.85-.64,1.65.26,2.26.08.06.21.08.25.15-.68.04-1.24.45-1.4,1.12-.01.05-.06.3-.06.33,0,0,0,.84,0,.84ZM10.61,19.45c-.68.08-.98,1.22-.3,1.36.89.18,1.29-1.15.48-1.34-.07-.02-.1-.03-.17-.02h0Z"/>
    <path d="M10.61,19.45c.08,0,.11,0,.17.02.81.19.41,1.52-.48,1.34-.67-.14-.37-1.28.3-1.36h0Z"/>
    <path class="st20" d="M23.4,14.31c-.1.1-.38.09-.46-.06s-.13-.67-.19-.89c-.29-1.09-.65-1.42-1.81-1.14-.23.06-.85.35-1.02.27-.6-.27.41-.85.6-1.03.67-.61.8-.96.32-1.78-.14-.24-.84-.91-.31-1.05.21-.06.9.38,1.22.4.89.05,1.19-1.42,1.49-2,.09-.18.18-.28.38-.13.22.16.11.8.13,1.07.02.22.08.57.18.77.38.76,1.33-.08,1.83-.09.13,0,.3.1.31.23.04.42-1.32,1.24-1.07,2.11.13.44.93.96.95,1.21.04.54-.94.08-1.23.06-.43-.03-.57.07-.76.44-.13.27-.49,1.54-.56,1.61ZM25.31,9.28c-.75.26-1.51.36-1.83-.52l-.15-.82c-.31.77-.79,1.58-1.74,1.46-.16-.02-.3-.11-.46-.12.43.61.67,1.36.17,2l-.6.58c.72-.2,1.64-.3,2.08.44l.46,1.11c.3-.92.6-1.89,1.81-1.55-.12-.2-.3-.36-.4-.57-.37-.82.2-1.4.65-2.01,0,0,.01,0,.01,0Z"/>
    <path class="st23" d="M25.31,9.28c-.46.61-1.02,1.19-.65,2.01.1.22.28.37.4.57-1.21-.33-1.51.63-1.81,1.55l-.46-1.11c-.44-.74-1.35-.65-2.08-.44l.6-.58c.5-.64.26-1.4-.17-2,.16.01.29.1.46.12.95.12,1.43-.69,1.74-1.46l.15.82c.32.88,1.08.77,1.83.52,0,0-.01,0-.01,0ZM22.97,10.06c-.68.1-.67,1.12-.04,1.26.93.22.98-1.4.04-1.26Z"/>
    <path d="M22.97,10.06c.95-.14.9,1.48-.04,1.26-.63-.15-.64-1.17.04-1.26Z"/>
    <g>
      <path class="st20" d="M14.03,10.59c.25-.02.76.78.94.98.67.73.92.68,1.38-.17.16-.3.35-1.14.75-.54.05,1.18-.52,2.26,1.06,2.43.24.03.61-.09.75.16.06.11.03.23-.06.32-.14.14-.74.32-.97.5-.8.6.07,1.93.25,2.67,0,.18-.08.34-.27.32-.18-.02-.69-.67-.89-.84-.36-.31-.92-.72-1.41-.59-.22.05-.53.28-.7.42-.15.13-.42.49-.57.55-.23.1-.43-.03-.42-.28.03-.64.51-1.29.09-1.95-.33-.53-1.26-.54-1.72-.86-.08-.48.23-.36.53-.41.32-.06,1-.18,1.18-.45.28-.44-.08-1.26-.12-1.76-.01-.17-.05-.46.19-.48v-.02h0Z"/>
      <path class="st20" d="M16.68,11.75c-.22.26-.32.6-.68.72-.75.26-1.22-.51-1.65-.98.32,1.04.16,1.94-1.03,2.13,1.16.36,1.49,1.32,1.12,2.43.95-1.02,2.11-.72,2.97.22-.17-.71-.55-1.52.03-2.15l.62-.43c-1.15-.05-1.59-.87-1.38-1.94Z"/>
      <path class="st23" d="M16.68,11.75c-.21,1.07.23,1.89,1.38,1.94l-.62.43c-.58.62-.2,1.44-.03,2.15-.87-.94-2.02-1.23-2.97-.22.37-1.11.04-2.08-1.12-2.43,1.2-.19,1.36-1.1,1.03-2.13.43.47.9,1.24,1.65.98.36-.12.46-.46.68-.72ZM15.37,13.35c-.69.14-.37,1.42.5,1.28.78-.12.4-1.47-.5-1.28Z"/>
      <path d="M15.37,13.35c.9-.19,1.28,1.16.5,1.28-.88.14-1.19-1.14-.5-1.28Z"/>
    </g>
    <path class="st20" d="M6.34,10.28c.1-.03.22,0,.29.08.54.78.87,2.25,2.1,1.97.35-.08,1-.5,1.22-.51.22-.01.34.18.25.39-.07.17-.43.56-.55.78-.5.91-.17,1.25.43,1.94.16.18.86.68.44.87s-1.27-.59-1.9-.22c-.43.25-.58.99-.66,1.45-.03.18.04.38-.14.5-.49.32-.67-.79-.8-1.09-.27-.64-.45-.89-1.19-.72-.32.07-.87.4-1.14.42s-.41-.22-.28-.45c.06-.11.35-.33.46-.45.46-.53.8-.84.24-1.49-.2-.22-.92-.62-.97-.8-.14-.51.74-.27.95-.26,1.62.09,1.05-1.11,1.1-2.22.01-.07.09-.17.16-.19h0ZM6.66,11.3v.8c0,.09-.18.49-.24.58-.3.41-.94.51-1.4.39-.03.1.02.07.05.1.23.19.39.28.57.55.47.73.07,1.17-.41,1.72.82-.28,1.5-.4,2,.43l.37.81c.07-.56.42-1.38.99-1.57.4-.14.77-.04,1.16.08-.26-.34-.62-.63-.75-1.06-.17-.59.12-1.15.44-1.63-.03-.03-.33.15-.41.17-.62.21-1.33.06-1.77-.43l-.62-.95h.02Z"/>
    <path class="st23" d="M6.66,11.3l.62.95c.44.49,1.15.64,1.77.43.08-.03.38-.2.41-.17-.33.48-.62,1.04-.44,1.63.13.43.49.72.75,1.06-.39-.12-.76-.22-1.16-.08-.57.19-.92,1.01-.99,1.57l-.37-.81c-.5-.84-1.18-.71-2-.43.47-.55.87-.99.41-1.72-.17-.27-.34-.36-.57-.55-.03-.03-.08,0-.05-.1.46.12,1.1.02,1.4-.39.06-.09.24-.49.24-.58v-.8h-.02ZM7.16,13.38c-.77.16-.37,1.39.44,1.22s.49-1.41-.44-1.22Z"/>
    <path d="M7.16,13.38c.93-.19,1.29,1.05.44,1.22s-1.21-1.06-.44-1.22Z"/>
    <path class="st20" d="M8.73,11.42c-.18-.18.21-1.56-.18-2.08-.41-.55-2.05-.41-2.35-.84-.08-.13-.05-.23.04-.34.14-.17.88-.22,1.15-.31.78-.27.94-.77.49-1.46-.15-.23-.65-.61-.35-.86.28-.23.52.09.77.22.22.12.83.46,1.05.46.49.01.88-.61,1.06-1,.06-.14.21-.66.27-.72.09-.09.31-.06.39.04.28.36-.3,1.95.55,1.93.47,0,1.01-.23,1.47-.3.69.25-.41.9-.67,1.19-.15.17-.44.57-.47.79-.06.52.75,1.3.72,1.53,0,.05-.08.16-.12.18-.23.11-.91-.31-1.24-.35-.83-.11-1.18.33-1.61.95-.13.18-.52.92-.61.98s-.29.06-.36,0h0ZM9.15,9.73c.03.25-.02.54,0,.8l.45-.65c.68-.79,1.28-1.03,2.31-.65-.18-.29-.41-.73-.38-1.09.05-.52.52-1,.85-1.37-.59.1-1.33.37-1.57-.39-.07-.23-.15-.59-.06-.82-.1-.02-.07.01-.1.06-.38.59-.72,1.15-1.55.97-.28-.06-.51-.22-.77-.33.73,1.06-.2,1.94-1.25,2.09.53.24,1.28.19,1.7.62.18.18.34.5.36.76,0,0,.01,0,.01,0Z"/>
    <path class="st23" d="M9.15,9.73c-.03-.25-.19-.57-.36-.76-.42-.43-1.17-.39-1.7-.62,1.05-.15,1.98-1.03,1.25-2.09.26.12.48.27.77.33.83.19,1.17-.37,1.55-.97.03-.04,0-.08.1-.06-.09.23,0,.58.06.82.24.75.98.49,1.57.39-.34.37-.8.85-.85,1.37-.03.35.2.79.38,1.09-1.03-.39-1.63-.15-2.31.65l-.45.65c-.02-.25.03-.55,0-.8,0,0-.01,0-.01,0ZM9.75,7.35c-.62.13-.79,1.22.03,1.2.95-.02,1.02-1.42-.03-1.2Z"/>
    <path d="M9.75,7.35c1.05-.22.99,1.18.03,1.2-.82.02-.65-1.07-.03-1.2Z"/>
    <path class="st20" d="M24.61,21.82c-.1.1-.38.09-.46-.06s-.13-.67-.19-.89c-.29-1.09-.65-1.42-1.81-1.14-.23.06-.85.35-1.02.27-.6-.27.41-.85.6-1.03.67-.61.8-.96.32-1.78-.14-.24-.84-.91-.31-1.05.21-.06.91.48,1.22.4.76-.19.87-1.14,1.16-1.72.09-.18.18-.31.34-.13.18.2.25.63.34.89.08.21.21.55.3.74.34.7,1.49.05,1.86-.16.11-.06.3.1.31.23.04.42-1.32,1.24-1.07,2.11.13.44.93.96.95,1.21.04.54-.94.08-1.23.06-.43-.03-.57.07-.76.44-.13.27-.49,1.54-.56,1.61h0ZM26.52,16.87c-.75.26-1.51.36-1.83-.52l-.36-.99c-.31.77-.58,1.75-1.54,1.63-.16-.02-.3-.11-.46-.12.43.61.67,1.36.17,2l-.6.58c.72-.2,1.64-.3,2.08.44l.46,1.11c.3-.92.6-1.89,1.81-1.55-.12-.2-.3-.36-.4-.57-.37-.82.2-1.4.65-2.01h.02Z"/>
    <path d="M24.16,17.54c.95-.14.9,1.48-.04,1.26-.63-.15-.64-1.17.04-1.26Z"/>
    <path class="st23" d="M26.59,16.77c-.46.61-1.11,1.2-.74,2.02.1.22.33.46.45.66-1.21-.33-1.57.62-1.87,1.54l-.46-1.11c-.44-.74-1.35-.65-2.08-.44l.6-.66c.5-.64.21-1.36-.22-1.96.16.01.34.06.51.08.95.12,1.23-.77,1.54-1.55l.35.9c.32.88,1.08.77,1.83.52,0,0,.08-.01.08-.01ZM24.16,17.57c-.68.1-.67,1.12-.04,1.26.93.22.98-1.4.04-1.26Z"/>
  </g>
  <g id="on_target_path_and_iEP">
    <title>Successful reprogramming: on target route from MEFs, via Foxa1 and Hnf4a induction, to iEP cells, the intended fate.</title>
    <g>
      <path class="st16" d="M146.67,10.31c-.05.58-.99.99-1.47.69-.12-.07-.13-.21,0-.27.19-.09.49.19.88-.15.62-.55-.02-1.5-.77-1.17-.14.06-.44.4-.57.22-.21-.29.58-.65.81-.67.19-.02.44.14.69.03.19-.08.77-.58.95-.75.21-.2.48-.46.67-.67.15-.17.52-.57.52-.78-.06-.6-.11-1.23-.15-1.85l-.03-.3c.05-.26.85-.86,1.09-1.06,1.22-1.03,2.49-1.99,3.7-3.03.26-.15.52-.08.69.15.75.92,1.68,2.09,2.39,2.98.05.08.12.24.16.29.11.13.39-.13.61.33.47,1.02.64,2.52,1.07,3.59.07.24-.11.36-.13.58-.06.67.12,1.64.14,2.33.02.56.04.88-.61.97l-5.78.39c-.19-.03-.29-.13-.41-.25-.26-.26-1.05-1.48-1.28-1.55l-2.74-.1h-.39l-.04.04ZM148.96,6.8l2.11.89.22-.17,4.25-3.25.11-.09-2.29-3.02-.07-.08-4.5,3.55v.19s.16,1.98.16,1.98ZM154.04,6.13,148.69,7.32c-.36.35-.67.74-1.03,1.07-.15.13-1.09.9-1.1.97-.02.09.11,0,.19-.01.2-.02.63-.14.86-.21.41-.12.79-.24,1.2-.39.15-.05.71-.26.78-.34s.33-.61.28-.7l-1.16-.39h-.02ZM146.93,9.75c.11,0,1.81.18,1.92.18.28,0,.84.03,1.08-.01.14-.03.38-.37.47-.52-.16-.2-.47-.59-.67-.57-.94.38-1.83.63-2.81.9"/>
      <g>
        <path class="st6" d="M129.35,14.51c.11-.03.22-.01.33.01.36.08.99.4,1.4.53,1.25.4,2.41.54,3.49,1.36,2.66,2.03,3.1,7.96-.85,8.79-2.34.49-4.88-1.07-5.54-3.34s.4-3.67.73-5.77c.06-.37.02-1.48.44-1.58Z"/>
        <path class="st6" d="M134.63,20.19c0-1.24-1-2.24-2.24-2.24s-2.24,1-2.24,2.24,1,2.24,2.24,2.24,2.24-1,2.24-2.24Z"/>
        <path class="st6" d="M134.63,20.19c0,1.24-1,2.24-2.24,2.24s-2.24-1-2.24-2.24,1-2.24,2.24-2.24,2.24,1,2.24,2.24Z"/>
      </g>
      <g>
        <g>
          <path class="st6" d="M125.26,6.92c.1-.02.19-.02.28.01.27.08.62,1.04.78,1.33,1.12,2.06,2.13,3.72,1.5,6.21-.91,3.6-5.75,3.25-6.58-.14-.74-3.03,1.82-4.29,3.27-6.39.16-.24.5-.95.74-1.01h.01Z"/>
          <path class="st6" d="M126.48,13.15c0-1.1-.89-1.99-1.99-1.99s-1.99.89-1.99,1.99.89,1.99,1.99,1.99,1.99-.89,1.99-1.99Z"/>
          <path class="st6" d="M126.48,13.15c0,1.1-.89,1.99-1.99,1.99s-1.99-.89-1.99-1.99.89-1.99,1.99-1.99,1.99.89,1.99,1.99Z"/>
        </g>
        <g>
          <path class="st6" d="M120.65,17.17c.25-.04,1.26.45,1.57.56,1.64.6,2.86.87,3.92,2.4,2.06,2.97.5,6.12-3.24,5.22-2.14-.52-3.15-2.79-2.91-4.84.06-.56.28-1.15.31-1.71.03-.46-.28-1.53.35-1.63Z"/>
          <path class="st6" d="M125.35,21.89c0,1.08-.88,1.96-1.96,1.96s-1.96-.88-1.96-1.96.88-1.96,1.96-1.96,1.96.88,1.96,1.96Z"/>
        </g>
      </g>
      <g>
        <path class="st6" d="M128.49,3.61c.36-.07,1.03.55,1.34.75,2.5,1.56,5.74,1.59,6.24,5.24.63,4.55-5.92,6.34-7.43,1.91-.75-2.2-.67-3.69-.55-5.95.02-.43-.17-1.83.39-1.95h0Z"/>
        <path class="st6" d="M134.17,9.51c0-1.18-.96-2.14-2.14-2.14s-2.14.96-2.14,2.14.96,2.14,2.14,2.14,2.14-.96,2.14-2.14Z"/>
      </g>
      <g>
        <g>
          <path class="st6" d="M128.95,25.31c.09-.02.21-.02.3,0,.28.03,1.06.51,1.41.65,1.28.51,2.81.75,3,2.47.41,3.74-5.73,4.29-5.65.18,0-.61.44-2.28.63-2.91.05-.16.12-.33.3-.37v-.02h0Z"/>
          <path class="st6" d="M132.3,28.74c0-.89-.72-1.61-1.61-1.61s-1.61.72-1.61,1.61.72,1.61,1.61,1.61,1.61-.72,1.61-1.61Z"/>
        </g>
        <g>
          <g>
            <path class="st6" d="M142.53,24.23c.21-.05.78-.02,1.02,0,1.49.06,4.04.34,5.28,1.18,1.39.95,1.87,2.72,1.08,4.23-1.47,2.79-5.42,1.57-6.8-.66-.7-1.14-.65-2.06-.74-3.34-.03-.37-.34-1.29.17-1.4h0Z"/>
            <path class="st6" d="M148.42,27.82c0-1.13-.91-2.04-2.04-2.04s-2.04.91-2.04,2.04.91,2.04,2.04,2.04,2.04-.91,2.04-2.04Z"/>
          </g>
          <g>
            <path class="st6" d="M137.85,24.66c-3.9,0-4.65,5.4-.55,5.78.49.05,1.04,0,1.53.04.97.07,1.93.18,2.88.4.11,0,.17-.05.19-.16.06-.31-.45-1.19-.58-1.57-.36-1-.33-2.06-.88-2.98s-1.49-1.52-2.58-1.52h0Z"/>
            <path class="st6" d="M137.85,24.66c1.09,0,2.04.6,2.58,1.52s.52,1.98.88,2.98c.13.37.64,1.26.58,1.57-.02.1-.09.17-.19.16-.94-.22-1.91-.33-2.88-.4-.49-.04-1.04,0-1.53-.04-4.1-.38-3.35-5.76.55-5.78h0ZM139.63,27.73c0-1.05-.85-1.89-1.89-1.89s-1.89.85-1.89,1.89.85,1.89,1.89,1.89,1.89-.85,1.89-1.89Z"/>
          </g>
        </g>
      </g>
      <g>
        <path class="st6" d="M139.59,4.74c.44-.03.97.97,1.27,1.31.71.81,1.66,1.38,2.38,2.2,3.26,3.7.61,7.57-4.06,6.39-4.21-1.07-1.7-5.8-.53-8.28.13-.28.54-1.41.71-1.54.04-.03.17-.08.23-.08h0Z"/>
        <path class="st6" d="M142.42,10.93c0-.99-.8-1.79-1.79-1.79s-1.79.8-1.79,1.79.8,1.79,1.79,1.79,1.79-.8,1.79-1.79Z"/>
      </g>
      <g>
        <g>
          <path class="st6" d="M147.2,12.1c.09-.02.15-.02.24.01.27.08.55.94.71,1.22,1.07,1.89,3.04,3.04,3.65,5.27.93,3.39-3.96,6.23-6.24,2.92-1.84-2.68-.49-5.96.91-8.49.15-.27.42-.87.73-.93Z"/>
          <path class="st6" d="M150.15,19.02c0-1.14-.92-2.06-2.06-2.06s-2.06.92-2.06,2.06.92,2.06,2.06,2.06,2.06-.92,2.06-2.06Z"/>
        </g>
        <g>
          <path class="st15" d="M137,14.83s.42-.04,1.87.57c2.19.76,4.44.91,5.12,3.59s-1.77,5.31-4.46,4.55c-2.96-.83-1.94-4.87-2.45-7.1-.09-.37-.63-1.49-.07-1.61h0Z"/>
          <path class="st6" d="M142.67,19.7c0,1.1-.9,2-2,2s-2-.9-2-2,.9-2,2-2,2,.9,2,2Z"/>
        </g>
      </g>
    </g>
    <g>
      <path class="st23" d="M31.44,15.71c-2.62.11,87.85.29,87.85.29"/>
      <g>
        <path class="st4" d="M31.44,15.71c-2.25.09,64.04.24,82.91.28"/>
        <path class="st12" d="M119.29,16c-2.33.86-5.22,2.33-7.02,3.88l1.42-3.9-1.4-3.9c1.79,1.57,4.67,3.05,7,3.91h0Z"/>
      </g>
    </g>
    <g class="st21">
      <g class="st21">
        <g class="st21">
          <g class="st21">
            <g class="st21">
              <text class="st22" transform="translate(133.23 38.55) scale(1.03 1)"><title>Successful reprogramming: on target route from MEFs, via Foxa1 and Hnf4a induction, to iEP cells, the intended fate.</title><tspan x="0" y="0">iEP</tspan></text>
            </g>
          </g>
        </g>
      </g>
    </g>
    <polygon class="st16" points="150.19 8.61 151.78 9.96 157.31 7.95 156.88 6.33 156.32 4.57 153.72 6.62 151.47 8.4 150.34 7.95 150.19 8.61"/>
    <polygon class="st16" points="151.07 7.69 153.36 5.93 155.65 4.18 154.47 2.63 153.29 1.08 151.04 2.86 148.79 4.63 148.96 6.8 151.07 7.69"/>
  </g>
  <g id="off_target_path_and_dead_end">
    <title>Off-target outcome: cells that fail to complete reprogramming to iEP and instead stall in dead-end states.</title>
    <g>
      <path class="st5" d="M114.58,52.81c1.23-.13,3.13,1.19,2.64,2.54-.45,1.23-2.28.73-3.04.07-.95-.81-1.12-2.45.4-2.61Z"/>
      <path class="st5" d="M114.51,53.06c-.53.07-.89.49-.84,1.03.11,1.05,1.45,1.9,2.45,1.78,1.08-.13,1.19-1.11.58-1.87-.51-.62-1.37-1.06-2.19-.95h0Z"/>
      <path class="st7" d="M120.49,60.3c-.45.47-.58.88-.25,1.49.2.37.85,1.04.88,1.39.07.84-1.14-.22-1.41-.36-1.1-.62-1.68-.21-2.17.83-.1.22-.3.88-.45,1-.32.29-.46-.27-.5-.49-.09-.45-.06-.89-.27-1.32-.44-.86-1.68-.37-2.41-.35-.25,0-.43-.04-.37-.33.11-.47,1.64-.86,1.75-1.68.12-.87-1.02-1.37-1.05-1.94-.01-.19.11-.3.29-.29.56.02,1.34.55,1.95.48.95-.11,1-1.39,1.34-2.02.15-.29.38-.28.5.02.26.64.04,1.69.69,2.18s1.31.02,1.98-.03c.21-.02.78-.05.72.29-.05.27-.98.89-1.22,1.14h0Z"/>
      <path class="st5" d="M118.1,56.75c-.08,0-.06,0-.08.05-.12.22-.21.66-.32.92-.18.43-.39.94-.85,1.13-.8.34-1.61-.3-2.4-.36.34.73,1.34,1.27,1,2.22-.28.78-1.22.97-1.71,1.55.82,0,2.1-.52,2.67.34.37.56.31,1.25.48,1.87.08.02.06-.01.08-.05.46-.7.51-2,1.67-2.11,1.01-.1,1.34.62,2.08.93.06.02.11.04.17.03-.18-.67-.98-1.19-1.06-1.9-.12-1.01.82-1.42,1.43-2,.04-.04.25-.23.19-.28-.83-.06-1.8.57-2.56.03-.67-.48-.61-1.65-.8-2.37h0Z"/>
      <path class="st5" d="M125.37,54.49c-.06.08-.23.09-.33.1-.72.03-1.69-.46-2.25.25-.3.39-.24.82-.32,1.27-.03.16-.09.5-.32.43-.32-.09-.78-1.34-1.03-1.66-.52-.66-1.41.16-2.04.18-.74.03.09-.77.22-.95.51-.71.19-1.18-.37-1.71-.18-.17-.87-.66-.91-.86-.1-.48.8-.2,1.04-.19.72.04,1.3-.07,1.57-.8.12-.31.2-1.36.47-1.48.32-.15.37.46.44.65.37.99,1.17,1.28,2.18,1.01.46-.13,1.26-.66.87.34-.25.63-.84,1.06-.53,1.81.08.2.31.44.48.58.2.17,1.11.69.84,1.03,0,0-.01,0-.01,0Z"/>
      <path class="st5" d="M121.21,49.33c-.08,0-.06,0-.08.04-.13.28-.15.77-.25,1.1-.4,1.34-1.43,1.1-2.54,1-.05,0-.08-.05-.07.04.64.62,1.91,1.38,1.41,2.44l-.63.87c.66-.02,1.28-.62,1.95-.34.48.2.76,1.15,1.03,1.59.02.03.15.26.21.2.06-.65.06-1.4.65-1.81.63-.44,1.31-.14,1.99-.1.06,0,.32.04.3-.05-.37-.51-1.06-.72-1.32-1.34-.4-.98.42-1.43.61-2.29-1.4.75-2.99.38-3.26-1.35Z"/>
      <path class="st5" d="M108.33,59.19c.83-.86,1.84-.55,2.3.49.54,1.24.28,3.22-.52,4.31s-2,.97-2.52-.3-.24-3.47.75-4.5c0,0-.01,0-.01,0Z"/>
      <path class="st5" d="M109.16,58.94c-1.03.18-1.57,2.03-1.62,2.91-.05.8.14,2.24.99,2.59,1.16.47,1.92-1.37,2.08-2.24.17-.98.08-3.52-1.45-3.26Z"/>
      <g>
        <path class="st5" d="M112,50c-.27-.27.49-.84.65-1.02.99-1.14-.24-1.6-.71-2.48-.1-.18-.24-.45-.09-.62.43-.06.78.26,1.22.3,1.31.11,1.38-1.29,1.99-2.05s.61.18.7.6c.13.59.51,1.01,1.13,1.06.57.05,1.39-.27,1.91-.03.56.26-.26.67-.47.86-.75.68-.63,1.46-.1,2.23.17.25.72.74.62,1.06-.07.23-.48.11-.64.05-.37-.13-.95-.6-1.26-.66-.11-.02-.28-.02-.39.02-.57.21-.66,1.68-.92,2.19-.08.16-.18.31-.38.19s-.26-.92-.32-1.16c-.19-.75-.54-.95-1.3-.85-.32.04-1.45.49-1.64.31Z"/>
        <path class="st5" d="M118.75,45.97c-.88-.27-1.74.37-2.57-.17-.62-.4-.62-1.06-.77-1.71-.46.47-.6,1.15-.98,1.68-.65.9-1.51.78-2.4.31.16.67.87,1.03,1.11,1.66.21.54.07.92-.28,1.35-.08.09-.72.66-.66.74.83-.15,2.01-.82,2.67,0,.35.43.3.97.44,1.47.01.05.02.18.09.15.09-.03.3-1.04.35-1.2.11-.38.28-.92.65-1.12.75-.41,1.46.66,2.2.66.06-.06-.53-.74-.6-.84-.59-.87-.68-1.74.15-2.49.06-.05.62-.45.59-.49,0,0,.01,0,.01,0Z"/>
        <g>
          <path class="st5" d="M107.48,44.98c1.02.97,2.09.03,3.13-.16.41-.07,1.13-.04.61.5-.42.44-1.66.97-1.73,1.63-.13,1.15,1.65,1.95,1.73,2.87.06.68-.83.09-1.12,0-1.37-.49-1.59.12-2.54.88-.51.41-1.1.91-1.63,1.27-.43.29-.96.6-.9-.22.04-.56.28-1.09-.06-1.64-.53-.87-1.9-.23-2.63-.06-.26.06-.8.2-.99-.03-.24-.29.27-.54.47-.66.59-.36,1.98-.93,1.81-1.8-.15-.8-1.43-1.78-1.4-2.49s.93.19,1.15.34c.88.61,1.75.77,2.21-.39.21-.52.28-1.04.6-1.52.09-.14.42-.53.57-.57.52-.14.29.73.29,1,0,.38.16.81.44,1.07h-.01v-.02Z"/>
          <path class="st5" d="M106.83,43.19c-.06-.02-.07.03-.11.05-.87.67-.65,2.39-1.74,2.8-.98.37-1.79-.49-2.51-1.01.17.93,1.55,1.84,1.41,2.84-.13.9-1.7,1.46-2.33,1.96-.01.08.04.05.09.05.6.05,1.43-.41,2.09-.46,1.15-.09,1.73.48,1.65,1.65-.01.13-.21.92-.08.94.24-.04.46-.22.66-.36.82-.57,1.56-1.32,2.36-1.88.51-.36.83-.41,1.45-.29.42.09.79.34,1.2.44-.1-.59-.66-.98-1.03-1.4-.34-.39-.74-.99-.71-1.52.06-.88,1.35-1.32,1.84-1.93-.77-.07-1.41.45-2.15.56-1.03.16-2.04-.45-2.14-1.54-.03-.3.05-.6.03-.9h.02Z"/>
          <circle class="st5" cx="106.7" cy="47.97" r="1.55"/>
          <circle class="st5" cx="106.7" cy="47.97" r="1.3"/>
        </g>
      </g>
      <g>
        <g>
          <path class="st5" d="M101.6,52.07c.38-.09.77.27,1.04.51.33.29.94,1.08,1.34,1.14.45.07.66-.35,1.01-.56.56-.34,1.43-.39,1.97.03s-.19.61-.46.85c-1.15,1,.03,1.66.69,2.39.22.24.87.95.89,1.23,0,.12,0,.24-.13.31-.52-.15-1.41-.65-1.97-.27-.9.53.1,1.91-.05,2.67-.03.17-.15.26-.32.24-.41-.05-.95-1.18-1.46-1.41-.81-.36-1.82.6-2.5.96-.79.42-1.2.22-.65-.62.29-.45,1.02-1.1.86-1.69-.1-.38-1.22-1.01-1.59-1.17-.24-.11-1.01-.32-1.12-.51-.13-.25.14-.39.34-.46.67-.23,1.53.08,1.97-.65s-.16-1.63-.12-2.42c0-.18.07-.49.27-.54v-.03h0Z"/>
          <path class="st5" d="M107.85,57.73c-.41-1.37-3.2-2.31-1.51-3.86.17-.16.37-.26.55-.41-.29-.39-1.07-.4-1.5-.25-.47.17-.86.8-1.35.77-.53-.04-1.18-.91-1.58-1.26-.14-.12-.61-.5-.79-.44-.06.04-.08.13-.09.19-.14.95.78,2.04-.11,2.9-.53.51-1.18.34-1.81.49-.15.04-.46.11-.21.25.22.13.61.21.88.33.47.21,1.53.81,1.72,1.29.27.69-.59,1.44-.91,1.98-.08.13-.18.26-.16.42,1.15-.23,2.34-1.96,3.56-.95.42.35.64.95,1.15,1.2.14-.8-.52-1.55-.25-2.36.22-.66.85-.79,1.47-.62.15.04.86.39.94.32h0Z"/>
          <circle class="st5" cx="103.78" cy="56.39" r="1.46"/>
          <circle class="st5" cx="103.78" cy="56.38" r="1.23"/>
        </g>
        <g>
          <path class="st5" d="M109.84,51.2c.62-.13.47.61.51.97.2,2.01,1.78,1.97,2.65,3.48.72,1.25.45,2.05.13,3.34-.04.14-.02.49-.18.53-.11.03-1.1-.61-1.3-.71-1.21-.62-2.09-.84-2.84-2.12-.85-1.46-.77-2.6-.06-4.09.17-.37.67-1.3,1.09-1.38v-.02Z"/>
          <path class="st5" d="M110.02,51.4c-.19-.12-.66.53-.75.67-.96,1.47-1.18,2.97-.25,4.53.78,1.3,1.81,1.48,3.03,2.14.1.06.78.51.81.48.15-.83.5-1.52.34-2.38-.42-2.38-2.84-2.31-3.07-4.44-.02-.17,0-.94-.11-1Z"/>
          <path class="st5" d="M110.05,54.67c.7-.09,1.46.7,1.67,1.32.35,1.01-.39,1.5-1.27.98-.28-.17-.65-.57-.8-.87-.24-.49-.32-1.35.39-1.43h.01Z"/>
          <path class="st5" d="M110.05,54.91c-.62.11-.2,1.1.05,1.42.27.35,1.28,1.02,1.46.31s-.8-1.86-1.52-1.73h0Z"/>
        </g>
      </g>
    </g>
    <g>
      <path class="st3" d="M109.18,36.23c-7.23-13.05-18.92-20.24-21.27-20.24"/>
      <path class="st13" d="M111.36,40.68c-.27-2.47-.24-5.71.36-8.01l-2.86,3-4.12.48c2.2.9,4.81,2.83,6.62,4.53Z"/>
    </g>
    <g class="st21">
      <g class="st21">
        <g class="st21">
          <g class="st21">
            <g class="st21">
              <text class="st22" transform="translate(99.98 73.87) scale(1.03 1)"><title>Off-target outcome: cells that fail to complete reprogramming to iEP and instead stall in dead-end states.</title><tspan x="0" y="0">Dead-end</tspan></text>
            </g>
          </g>
        </g>
      </g>
    </g>
  </g>
  <g class="st21">
    <g class="st21">
      <g class="st21">
        <g class="st21">
          <g class="st21">
            <text class="st22" transform="translate(31.44 12.14) scale(1.03 1)"><title>Foxa1 and Hnf4a: the transcription factor pair induced to drive MEF-to-iEP reprogramming.</title><tspan x="0" y="0">Foxa1-Hnf4a</tspan></text>
          </g>
        </g>
      </g>
    </g>
  </g>
</svg>